<?xml version="1.0" standalone="no"?>
<!DOCTYPE svg PUBLIC "-//W3C//DTD SVG 20010904//EN"
 "http://www.w3.org/TR/2001/REC-SVG-20010904/DTD/svg10.dtd">
<svg version="1.0" xmlns="http://www.w3.org/2000/svg"
 width="347.000000px" height="351.000000px" viewBox="0 0 347.000000 351.000000"
 preserveAspectRatio="xMidYMid meet">

<g transform="translate(0.000000,351.000000) scale(0.100000,-0.100000)"
fill="#000000" stroke="none">
<path d="M1310 3040 c-63 -9 -111 -26 -122 -43 -4 -7 -8 -49 -8 -94 l0 -83
-93 0 c-59 0 -97 -4 -105 -12 -9 -9 -12 -82 -12 -265 0 -290 -6 -271 100 -292
30 -6 84 -18 120 -26 36 -9 100 -23 143 -32 86 -18 88 -21 43 -90 l-21 -32
-105 -3 -105 -3 -3 -134 c-2 -90 1 -138 9 -147 9 -11 52 -14 204 -14 l193 0
69 58 c37 31 79 67 92 79 21 19 28 20 41 9 8 -7 50 -43 93 -79 l78 -67 202 2
202 3 3 148 3 147 -104 0 -104 0 -32 51 c-18 27 -32 52 -30 53 2 2 40 11 84
21 44 9 107 23 140 31 33 7 85 19 115 25 106 21 100 2 100 292 0 183 -3 256
-12 265 -8 8 -46 12 -105 12 l-93 0 0 90 c0 89 0 90 -30 105 -42 22 -181 37
-260 30 -74 -8 -168 -36 -226 -69 -39 -22 -39 -22 -71 -3 -100 58 -264 86
-393 67z m266 -104 c23 -8 57 -24 75 -34 l34 -19 3 -221 c1 -122 1 -222 -2
-222 -2 0 -21 7 -42 16 -92 39 -266 56 -342 35 l-32 -10 0 234 0 234 38 4 c65
8 226 -2 268 -17z m624 9 c6 -4 10 -99 10 -237 l0 -230 -22 7 c-13 4 -61 9
-108 12 -91 5 -229 -21 -277 -53 l-23 -15 2 227 3 227 41 22 c35 19 69 30 149
49 26 6 213 -1 225 -9z m-1020 -369 c0 -156 1 -166 21 -180 17 -11 27 -12 52
-3 18 7 87 12 157 12 133 0 177 -12 272 -71 48 -31 67 -30 120 4 54 35 98 51
168 64 62 11 191 4 250 -13 66 -20 70 -9 70 185 l0 166 65 0 65 0 -2 -197 -3
-198 -35 -6 c-19 -4 -64 -14 -100 -22 -36 -9 -108 -25 -160 -37 -160 -36 -222
-51 -290 -67 -82 -20 -108 -20 -195 1 -74 18 -131 31 -285 66 -52 12 -111 26
-130 30 -19 5 -64 15 -100 23 l-65 14 -3 196 -2 197 65 0 65 0 0 -164z m461
-453 c64 -17 127 -14 243 12 l78 17 23 -28 c13 -16 31 -45 41 -64 35 -68 39
-70 136 -70 l88 0 0 -70 0 -70 -143 0 c-133 0 -144 1 -167 23 -58 52 -147 125
-172 141 -22 14 -31 15 -50 5 -13 -7 -25 -15 -28 -18 -3 -3 -32 -28 -65 -56
-33 -27 -71 -59 -84 -72 -22 -22 -31 -23 -167 -23 l-144 0 0 70 0 70 84 0 84
0 29 38 c35 47 50 71 63 100 9 21 15 23 53 17 23 -4 67 -13 98 -22z"/>
<path d="M695 1304 c-17 -41 -20 -85 -6 -99 9 -10 34 -124 45 -202 l6 -43 -60
0 c-33 0 -60 3 -60 8 0 4 -21 31 -46 60 -37 43 -51 52 -78 52 -40 0 -69 -29
-90 -88 -14 -39 -14 -43 1 -49 9 -4 21 1 28 10 13 18 50 23 59 9 3 -5 -17 -14
-45 -21 -71 -18 -92 -49 -87 -126 5 -64 34 -182 50 -202 6 -7 14 -13 19 -13
15 0 10 125 -6 163 -8 20 -15 41 -15 46 0 6 23 17 52 26 38 11 99 15 233 15
172 0 183 1 201 21 l19 21 17 -22 c16 -20 24 -21 105 -17 112 7 92 7 210 1 91
-5 105 -4 130 14 27 19 29 19 73 1 35 -14 73 -18 173 -18 l127 -1 0 75 c0 41
-7 108 -16 149 -16 70 -16 78 0 119 23 61 20 79 -14 99 -17 9 -30 24 -30 33 0
21 -23 19 -36 -3 -19 -30 -27 -101 -14 -117 11 -13 22 -62 46 -207 l7 -38 -56
0 c-49 0 -56 3 -63 23 -3 12 -17 46 -31 75 -21 44 -29 52 -52 52 -27 0 -91
-54 -91 -77 0 -6 -13 -25 -29 -42 -23 -25 -37 -31 -70 -31 l-41 0 0 53 c0 28
-5 59 -10 67 -9 13 -14 10 -36 -14 -21 -24 -25 -36 -21 -63 5 -28 3 -34 -11
-31 -13 2 -18 15 -20 51 -2 26 -6 47 -10 47 -19 -1 -41 -29 -44 -55 -4 -36
-36 -55 -95 -55 -49 0 -63 17 -63 74 0 29 -4 36 -20 36 -15 0 -20 -7 -20 -29
0 -35 -49 -81 -85 -81 -24 0 -35 21 -35 75 0 17 -7 54 -14 83 -8 28 -10 52 -6
52 10 0 16 18 25 70 5 31 3 37 -25 52 -16 9 -30 24 -30 33 0 29 -30 15 -45
-21z m781 -315 c19 -21 19 -21 -8 -8 -15 6 -25 16 -22 20 7 12 8 12 30 -12z"/>
<path d="M2374 1309 c-16 -33 -15 -73 5 -159 22 -95 41 -202 41 -229 0 -71
-140 -120 -204 -70 -33 26 -33 57 -1 122 26 51 27 77 2 77 -22 0 -76 -119 -82
-181 -11 -96 45 -159 141 -159 80 0 169 50 194 110 l12 30 191 0 190 0 -7 93
c-4 50 -12 111 -18 134 -5 23 -7 59 -4 80 19 109 19 121 -4 128 -11 4 -25 18
-30 31 -5 13 -14 24 -19 24 -29 0 -58 -123 -33 -139 6 -4 16 -38 22 -76 5 -39
14 -86 20 -105 17 -58 15 -60 -50 -60 l-60 0 0 41 c0 39 -35 129 -50 129 -4 0
-15 -21 -25 -47 -18 -46 -18 -47 4 -85 l22 -38 -75 0 -74 0 -16 73 c-20 91
-22 137 -9 162 6 11 13 32 17 47 5 23 2 30 -23 42 -15 8 -31 24 -34 36 -7 29
-24 25 -43 -11z"/>
<path d="M1811 1265 c-24 -50 -26 -75 -10 -125 5 -19 12 -98 14 -175 4 -125 7
-140 22 -140 43 0 65 144 43 284 -27 172 -32 201 -40 201 -4 0 -17 -20 -29
-45z"/>
<path d="M3015 1201 c-3 -5 -10 -33 -15 -62 -10 -51 -9 -52 25 -90 20 -23 35
-50 35 -64 0 -24 -3 -25 -59 -25 -40 0 -65 5 -75 15 -29 30 -37 17 -34 -52 l3
-68 113 -3 112 -3 0 99 c0 112 -18 186 -56 232 -27 31 -39 36 -49 21z"/>
<path d="M2584 811 c-15 -26 -20 -28 -43 -20 -21 8 -28 6 -43 -13 -30 -41 -29
-58 5 -79 38 -22 57 -24 57 -5 0 26 25 37 47 21 23 -16 24 -15 57 43 10 18 16
35 14 37 -1 1 -20 12 -40 24 l-37 20 -17 -28z"/>
</g>
</svg>
