<?xml version="1.0" standalone="no"?><!DOCTYPE svg PUBLIC "-//W3C//DTD SVG 20010904//EN"
	"http://www.w3.org/TR/2001/REC-SVG-20010904/DTD/svg10.dtd">
<svg version="1.0" xmlns="http://www.w3.org/2000/svg" width="512.000000px" height="512.000000px"
	viewBox="0 0 512.000000 512.000000" preserveAspectRatio="xMidYMid meet">
	<metadata>
		Created by potrace 1.16, written by Peter Selinger 2001-2019
	</metadata>
	<g transform="translate(0.000000,512.000000) scale(0.100000,-0.100000)" fill="#000000"
		stroke="none">
		<path d="M2459 4813 c-10 -12 -15 -59 -17 -177 -3 -153 -2 -163 18 -189 29
-36 71 -36 99 -1 19 24 21 40 21 183 0 183 -6 201 -69 201 -24 0 -44 -6 -52
-17z" />
		<path d="M2002 4694 c-35 -24 -28 -68 23 -156 25 -43 45 -80 45 -82 0 -18 74
-116 88 -118 34 -3 56 3 74 19 19 17 24 63 9 79 -14 14 -109 182 -116 204 -8
25 -62 70 -84 70 -9 0 -27 -7 -39 -16z" />
		<path d="M2924 4674 c-19 -19 -34 -41 -34 -47 0 -7 -11 -28 -24 -48 -42 -61
-96 -167 -96 -187 0 -35 40 -58 92 -54 15 2 88 100 88 120 0 4 14 27 30 52 71
105 80 163 31 189 -33 18 -52 13 -87 -25z" />
		<path d="M1646 4338 c-9 -12 -16 -31 -16 -42 0 -20 64 -86 83 -86 7 0 28 -11
48 -24 70 -48 171 -97 191 -94 12 2 30 15 41 30 30 40 17 71 -48 113 -31 19
-59 35 -63 35 -4 0 -27 14 -52 30 -94 64 -157 77 -184 38z" />
		<path d="M3260 4342 c-19 -10 -53 -30 -75 -45 -22 -15 -43 -27 -47 -27 -19 0
-118 -73 -120 -88 -4 -52 19 -92 55 -92 10 0 60 23 111 52 50 28 107 60 126
70 43 24 80 63 80 86 0 57 -62 78 -130 44z" />
		<path d="M2358 4294 c-313 -100 -438 -483 -245 -750 195 -269 598 -270 793 -1
61 84 85 152 91 264 5 79 2 103 -17 165 -27 82 -38 103 -93 171 -127 154 -334
214 -529 151z m288 -136 c82 -32 161 -114 194 -198 112 -290 -171 -572 -461
-459 -149 58 -249 230 -220 381 15 80 48 146 101 199 103 103 247 132 386 77z" />
		<path d="M1532 3884 c-19 -13 -22 -24 -20 -57 4 -61 23 -67 204 -67 138 0 154
2 178 21 17 13 26 30 26 47 -1 63 -28 72 -212 72 -124 0 -158 -3 -176 -16z" />
		<path d="M3126 3879 c-35 -28 -35 -70 0 -98 24 -19 40 -21 183 -21 183 0 201
6 201 70 0 64 -18 70 -201 70 -143 0 -159 -2 -183 -21z" />
		<path d="M1880 3545 c-19 -14 -38 -25 -42 -25 -4 0 -32 -16 -62 -35 -30 -19
-59 -35 -65 -35 -18 0 -81 -67 -81 -86 0 -11 7 -30 16 -42 27 -39 90 -26 184
38 25 16 48 30 52 30 4 0 32 16 63 35 65 42 78 73 48 113 -27 36 -68 38 -113
7z" />
		<path d="M3038 3553 c-39 -46 -28 -92 29 -123 21 -11 61 -34 88 -50 147 -87
191 -99 219 -58 9 12 16 30 16 39 0 22 -45 76 -70 84 -22 7 -190 102 -204 116
-16 15 -62 10 -78 -8z" />
		<path d="M2154 3320 c-19 -7 -46 -46 -95 -135 -9 -16 -30 -55 -47 -85 -38 -66
-41 -112 -10 -134 12 -9 30 -16 39 -16 22 0 76 45 84 70 7 22 102 190 116 205
18 19 9 63 -17 84 -29 23 -38 24 -70 11z" />
		<path d="M2796 3309 c-14 -11 -26 -29 -26 -40 0 -19 43 -106 93 -187 12 -20
30 -50 39 -67 26 -48 63 -71 95 -59 15 5 33 20 40 33 14 30 -3 80 -54 156 -18
27 -33 53 -33 57 0 4 -16 32 -35 62 -46 72 -72 82 -119 45z" />
		<path d="M2461 3214 c-19 -24 -21 -40 -21 -178 0 -181 6 -200 67 -204 66 -5
73 13 73 196 0 184 -9 211 -72 212 -17 0 -34 -9 -47 -26z" />
		<path d="M1140 1853 c-327 -49 -497 -95 -888 -239 -187 -69 -205 -78 -233
-121 -26 -38 -25 -128 0 -167 56 -84 123 -87 322 -12 491 183 753 243 1029
233 173 -6 230 -20 546 -138 350 -130 520 -164 742 -147 132 10 290 52 549
148 317 117 371 131 538 137 270 10 556 -55 1034 -234 164 -61 219 -68 273
-35 47 29 68 70 68 133 0 56 -24 104 -63 129 -11 7 -113 46 -226 87 -475 172
-752 233 -1054 233 -214 0 -313 -24 -757 -185 -386 -140 -525 -142 -880 -15
-518 186 -579 201 -817 199 -87 -1 -169 -3 -183 -6z" />
		<path d="M1660 988 c-113 -7 -199 -23 -325 -62 -141 -43 -425 -145 -447 -160
-39 -28 -58 -68 -58 -126 0 -62 20 -100 66 -131 52 -34 109 -25 325 51 240 84
334 109 455 119 146 12 196 3 451 -90 221 -80 303 -99 433 -99 130 0 212 19
434 99 91 33 194 68 228 77 161 42 396 1 752 -130 108 -41 137 -48 181 -44 88
7 135 59 135 148 0 105 -31 129 -294 219 -276 95 -457 132 -646 132 -136 0
-232 -22 -440 -101 -186 -70 -261 -90 -348 -90 -92 0 -152 15 -351 89 -255 96
-347 112 -551 99z" />
	</g>
</svg>
