<?xml version="1.0" standalone="no"?>
<!DOCTYPE svg PUBLIC "-//W3C//DTD SVG 20010904//EN"
 "http://www.w3.org/TR/2001/REC-SVG-20010904/DTD/svg10.dtd">
<svg version="1.0" xmlns="http://www.w3.org/2000/svg"
 width="550.000000pt" height="500.000000pt" viewBox="0 0 550.000000 500.000000"
 preserveAspectRatio="xMidYMid meet">

<g transform="translate(0.000000,500.000000) scale(0.100000,-0.100000)"
fill="#000000" stroke="none">
<path d="M2800 4723 c-29 -11 -50 -36 -50 -61 0 -13 16 -66 34 -116 59 -157
63 -284 15 -451 l-22 -76 20 -27 c37 -50 106 -42 130 15 79 191 72 438 -18
634 -35 76 -65 98 -109 82z"/>
<path d="M4315 4121 c-16 -10 -41 -31 -55 -46 -41 -45 -198 -177 -300 -252
-104 -77 -286 -192 -422 -268 -60 -33 -90 -56 -98 -75 -20 -49 16 -100 71
-100 38 0 319 165 499 293 110 79 274 212 355 291 57 54 65 66 65 98 0 28 -6
42 -26 57 -33 26 -50 26 -89 2z"/>
<path d="M1821 3965 c-97 -27 -149 -71 -200 -167 -32 -62 -47 -132 -37 -173 3
-13 27 -50 53 -81 53 -66 57 -57 -58 -124 -77 -46 -192 -99 -304 -142 -95 -36
-125 -61 -125 -100 0 -33 39 -78 67 -78 21 0 186 63 287 109 85 39 238 129
290 170 35 28 43 30 90 25 66 -8 164 12 194 39 49 45 14 122 -56 122 l-39 0
23 36 c76 121 95 326 34 359 -34 18 -161 21 -219 5z m99 -155 c0 -51 -92 -220
-120 -220 -5 0 -22 18 -40 40 l-31 39 21 50 c26 59 45 78 97 97 54 19 73 18
73 -6z"/>
<path d="M2770 3853 c-16 -20 -20 -36 -16 -58 21 -119 26 -158 26 -221 0 -84
-13 -129 -49 -167 -32 -35 -66 -33 -95 6 -18 25 -21 42 -21 135 0 59 4 144 9
188 8 76 7 83 -13 103 -27 27 -81 28 -105 2 -22 -24 -46 -170 -46 -281 0 -153
38 -250 118 -301 83 -52 155 -47 240 18 28 21 38 24 51 15 98 -70 182 -73 247
-8 50 50 68 124 68 291 0 77 -3 152 -7 167 -14 52 -95 71 -129 31 -9 -11 -15
-69 -18 -189 -6 -199 -10 -210 -66 -173 l-36 24 -3 150 c-3 161 -21 260 -51
282 -31 23 -80 16 -104 -14z"/>
<path d="M4284 3821 c-58 -39 -119 -108 -150 -170 -14 -29 -13 -37 15 -138 25
-91 58 -240 101 -453 32 -164 76 -570 91 -855 14 -258 7 -1027 -12 -1265 -6
-85 -12 -197 -13 -249 -1 -90 0 -94 26 -114 31 -23 67 -18 98 15 11 12 42 65
69 117 110 214 174 499 202 896 19 275 2 820 -37 1125 l-5 45 22 -25 c48 -54
81 -147 88 -242 6 -78 10 -93 30 -109 32 -26 73 -24 100 5 31 33 72 166 78
257 10 142 -43 297 -149 435 -47 61 -186 199 -249 247 -29 21 -43 46 -67 110
-34 88 -67 219 -78 307 -8 61 -38 100 -77 100 -14 0 -51 -18 -83 -39z m59
-298 c14 -55 42 -136 62 -180 34 -70 46 -85 127 -152 97 -80 190 -182 233
-256 30 -50 28 -74 -1 -29 -28 41 -162 144 -189 144 -65 0 -85 -39 -73 -138
61 -506 82 -970 58 -1292 -10 -137 -44 -402 -58 -453 -4 -15 -6 171 -4 415 5
468 -5 716 -39 1043 -35 338 -90 655 -153 889 -18 69 -21 94 -13 108 6 9 14
14 18 10 3 -4 17 -53 32 -109z"/>
<path d="M2823 2999 c-68 -44 -130 -110 -140 -147 -5 -22 6 -269 39 -862 20
-346 16 -633 -9 -751 -28 -129 -70 -216 -133 -272 -55 -50 -106 -67 -197 -67
-245 0 -372 101 -415 330 -6 32 -8 116 -5 205 6 154 28 285 83 490 79 300 99
420 92 574 -8 174 -67 282 -180 331 -92 39 -169 18 -266 -74 -73 -69 -131
-157 -239 -366 -154 -300 -260 -459 -372 -562 -97 -90 -173 -101 -214 -30 -44
76 -51 124 -52 394 -1 235 -3 259 -20 278 -21 23 -72 27 -97 8 -34 -27 -124
-279 -159 -446 -30 -140 -33 -345 -6 -442 49 -180 148 -287 320 -345 160 -53
247 -28 387 113 95 95 196 239 320 459 41 72 76 131 77 130 0 -1 -5 -49 -13
-107 -37 -282 -42 -767 -10 -942 53 -289 184 -452 425 -533 100 -33 266 -65
340 -65 209 0 387 110 531 328 15 23 15 23 59 -44 132 -201 313 -309 516 -308
180 1 343 69 467 194 151 154 218 368 218 706 0 198 -40 598 -71 718 -16 61
-3 53 21 -13 12 -33 31 -68 41 -77 27 -24 76 -22 102 4 18 19 21 31 19 99 -5
169 -62 412 -147 629 -60 154 -209 454 -236 477 -26 21 -62 22 -93 2 -67 -44
-192 -241 -236 -373 l-21 -63 55 -222 c31 -122 85 -332 121 -467 82 -308 105
-436 105 -593 0 -269 -81 -385 -287 -417 -125 -20 -222 9 -293 87 -78 84 -110
191 -135 453 -28 296 -94 1076 -110 1305 -19 266 -19 269 -45 295 -30 30 -69
24 -137 -21z m42 -419 c35 -474 110 -1309 125 -1390 40 -209 134 -353 277
-421 61 -29 79 -33 178 -37 133 -5 201 7 295 54 165 83 240 244 240 515 0 165
-20 294 -86 539 -145 545 -186 719 -180 753 8 38 71 165 100 202 l25 30 60
-127 c51 -107 141 -326 141 -343 0 -3 -25 15 -55 40 -60 48 -70 51 -109 34
-48 -22 -52 -56 -17 -175 147 -498 201 -1142 121 -1433 -63 -226 -206 -354
-434 -391 -203 -32 -388 95 -521 358 -39 77 -65 102 -103 102 -31 0 -59 -32
-112 -130 -64 -119 -161 -220 -258 -267 -74 -37 -79 -38 -182 -37 -117 2 -265
34 -357 80 -128 62 -206 177 -243 354 -27 129 -35 385 -21 634 15 243 31 371
81 636 33 171 37 208 27 229 -14 30 -54 46 -90 37 -30 -7 -102 -116 -262 -401
-173 -307 -268 -453 -358 -551 -99 -109 -155 -125 -270 -79 -144 59 -217 191
-217 395 0 87 14 123 24 63 11 -58 50 -136 90 -181 48 -53 108 -76 183 -70
186 13 368 217 612 686 124 238 170 310 230 365 50 45 81 54 115 32 95 -63 99
-296 11 -620 -83 -300 -115 -491 -115 -682 0 -163 19 -265 66 -361 62 -127
164 -210 305 -248 91 -24 254 -29 329 -10 126 33 222 113 283 239 45 92 62
155 83 297 18 125 16 383 -5 745 -27 461 -40 758 -34 768 10 16 10 19 28 -233z"/>
<path d="M2513 2518 c-11 -13 -24 -41 -27 -63 -4 -22 -43 -113 -88 -202 -97
-193 -108 -247 -63 -301 36 -43 78 -50 144 -22 94 41 130 116 75 159 -15 12
-33 21 -40 21 -8 0 -14 2 -14 5 0 3 24 53 54 112 54 107 86 197 86 238 0 65
-84 99 -127 53z"/>
<path d="M3127 2529 c-53 -31 -38 -121 49 -297 31 -62 55 -114 53 -115 -2 -1
-17 -9 -34 -17 -16 -9 -34 -28 -40 -43 -13 -39 8 -74 69 -112 66 -40 124 -41
163 -2 24 24 28 35 28 85 0 51 -9 75 -81 227 -45 94 -85 187 -89 208 -11 66
-66 96 -118 66z"/>
<path d="M2150 1802 c-60 -23 -79 -60 -56 -108 19 -40 52 -51 106 -35 20 6 40
11 44 11 23 0 -28 -156 -95 -287 -53 -103 -61 -149 -31 -176 25 -22 85 -22
104 1 19 21 108 199 133 265 15 39 57 87 78 87 3 0 8 -16 11 -35 8 -41 38 -65
82 -65 67 0 88 84 44 176 -27 55 -63 78 -123 79 -44 1 -50 4 -64 33 -33 69
-133 92 -233 54z"/>
<path d="M3395 1800 c-16 -11 -38 -34 -47 -52 -16 -29 -22 -32 -67 -32 -58 -1
-93 -27 -122 -91 -41 -88 -15 -165 54 -165 40 0 64 23 73 68 4 18 9 32 11 32
19 0 64 -47 74 -78 16 -49 117 -252 137 -274 9 -11 29 -18 52 -18 39 0 62 18
74 56 4 14 -12 57 -50 135 -67 136 -104 230 -104 265 0 23 3 25 23 20 68 -21
95 -19 121 7 49 49 27 105 -51 131 -65 22 -141 21 -178 -4z"/>
<path d="M1261 1134 c-12 -15 -21 -30 -21 -33 0 -4 -34 -5 -75 -3 -46 3 -87
-1 -105 -8 -93 -38 -126 -189 -60 -273 16 -20 17 -27 8 -34 -22 -13 -207 -16
-270 -3 -56 11 -63 10 -87 -8 -21 -16 -26 -27 -26 -63 0 -40 3 -45 35 -61 45
-22 200 -36 288 -27 76 8 163 38 217 74 28 20 49 25 97 25 133 0 251 61 297
153 21 43 22 53 12 87 -15 49 -49 77 -123 97 -48 13 -58 20 -58 38 0 59 -92
87 -129 39z m-71 -189 c0 -14 -34 -55 -45 -55 -19 0 -38 28 -31 45 5 14 76 23
76 10z m204 -34 c5 -8 -35 -31 -54 -31 -4 0 -6 9 -3 20 5 20 47 29 57 11z"/>
</g>
</svg>
