<?xml version="1.0" standalone="no"?>
<!DOCTYPE svg PUBLIC "-//W3C//DTD SVG 20010904//EN"
 "http://www.w3.org/TR/2001/REC-SVG-20010904/DTD/svg10.dtd">
<svg version="1.0" xmlns="http://www.w3.org/2000/svg"
 width="512.000000pt" height="512.000000pt" viewBox="0 0 512.000000 512.000000"
 preserveAspectRatio="xMidYMid meet">

<g transform="translate(0.000000,512.000000) scale(0.100000,-0.100000)"
fill="#000000" stroke="none">
<path d="M2011 5064 c-28 -35 -26 -69 4 -99 30 -30 64 -32 99 -4 19 15 26 30
26 54 0 70 -87 103 -129 49z"/>
<path d="M1581 4834 c-26 -33 -27 -65 -3 -93 44 -54 132 -24 132 45 0 71 -86
103 -129 48z"/>
<path d="M945 4665 c-144 -26 -273 -94 -380 -200 -83 -82 -142 -177 -182 -290
-25 -73 -27 -93 -27 -220 0 -127 2 -147 27 -220 50 -141 129 -254 240 -341
362 -283 883 -163 1087 251 50 100 73 189 74 281 1 81 -12 105 -70 124 -45 15
-94 -8 -122 -58 -31 -56 -100 -119 -162 -150 -49 -24 -67 -27 -155 -27 -95 0
-103 2 -163 34 -75 41 -125 94 -161 170 -22 48 -26 69 -26 151 0 85 3 101 28
150 35 67 76 112 144 156 64 42 82 83 59 139 -11 25 -26 40 -50 50 -42 18 -67
18 -161 0z m-83 -202 c-62 -89 -92 -184 -92 -299 0 -142 51 -264 154 -362 111
-106 222 -147 380 -140 110 6 196 33 263 84 l35 27 -7 -24 c-27 -93 -146 -226
-252 -281 -105 -55 -173 -72 -288 -71 -167 1 -291 56 -404 179 -248 271 -175
706 148 878 80 43 88 44 63 9z"/>
<path d="M3220 4646 c-117 -33 -226 -118 -276 -218 -29 -57 -171 -585 -180
-668 -14 -123 36 -251 136 -350 73 -73 144 -112 253 -139 l72 -19 0 -355 c0
-195 -3 -359 -7 -363 -4 -4 -143 44 -309 105 -165 62 -316 115 -334 118 -36 6
-125 -29 -125 -49 0 -13 -57 -3 -128 24 -40 15 -77 42 -142 104 -49 46 -100
86 -115 90 -35 9 -93 -15 -119 -49 -18 -25 -21 -42 -21 -155 0 -112 3 -132 22
-168 12 -23 95 -111 188 -200 l166 -159 457 -171 c298 -112 458 -177 460 -187
2 -8 -9 -24 -24 -36 -26 -21 -33 -21 -496 -21 -445 0 -472 -1 -529 -20 -79
-27 -123 -56 -182 -119 -103 -110 -120 -190 -115 -547 l3 -259 32 -68 c38 -79
114 -163 181 -200 105 -57 100 -57 917 -57 l750 0 60 -72 c32 -39 74 -77 92
-84 50 -21 239 -19 283 4 47 23 74 73 73 134 l-1 48 70 37 c126 66 232 196
272 332 9 30 16 69 16 87 0 68 31 88 49 32 20 -63 141 -719 141 -764 0 -25 -5
-54 -10 -65 -11 -19 -47 -19 -2295 -19 l-2283 0 -31 26 c-24 20 -31 34 -31 61
0 56 131 726 146 751 8 13 26 27 40 32 15 6 279 10 654 10 l629 0 21 27 c26
33 21 79 -11 106 -20 16 -66 17 -661 17 -462 0 -652 -3 -680 -12 -52 -15 -122
-78 -141 -126 -17 -41 -157 -764 -157 -808 0 -79 68 -180 145 -215 38 -18 133
-19 2415 -19 2282 0 2377 1 2415 19 77 35 145 136 145 215 0 44 -140 767 -157
808 -19 48 -89 111 -141 126 -22 7 -76 12 -120 12 l-81 0 -4 623 c-4 683 -5
692 -72 892 -121 361 -391 669 -660 755 -22 7 -43 14 -46 16 -4 2 17 40 46 84
69 105 140 321 165 502 20 140 -26 274 -126 373 -68 68 -108 86 -338 150 -212
59 -276 66 -366 41z m213 -645 c218 -65 400 -121 404 -125 10 -10 -14 -91 -48
-163 -54 -114 -178 -225 -304 -272 -77 -29 -177 -40 -265 -29 -168 20 -273
113 -302 266 -10 53 -7 69 38 250 37 144 52 192 64 192 8 -1 194 -54 413 -119z
m411 -670 c96 -34 164 -80 261 -176 169 -169 279 -375 336 -633 22 -93 22
-122 26 -782 5 -732 3 -761 -44 -853 -35 -70 -106 -142 -170 -173 -29 -15 -55
-25 -57 -23 -2 2 -22 52 -46 112 -23 59 -54 125 -69 147 -57 86 -140 120 -288
120 -82 0 -93 2 -93 18 0 26 -35 79 -67 99 -24 16 -62 18 -393 23 l-365 5 -3
208 -2 207 162 0 c151 0 167 2 215 24 53 25 108 86 119 133 4 13 7 23 8 23 1
0 29 5 61 11 84 15 144 49 203 113 51 57 77 111 157 339 l28 78 -20 27 c-28
38 -67 50 -101 32 -21 -12 -38 -47 -88 -179 -46 -120 -71 -172 -95 -197 -42
-44 -106 -68 -161 -62 -35 5 -891 318 -905 331 -7 8 100 289 112 293 7 3 163
-51 347 -120 184 -70 342 -126 351 -126 43 0 67 44 168 315 55 149 107 280
115 293 38 58 138 80 210 46 41 -19 84 -87 84 -131 0 -16 -13 -67 -29 -113
-23 -67 -27 -89 -19 -112 18 -52 88 -66 125 -25 35 39 77 173 77 246 0 118
-70 228 -179 281 -71 35 -199 35 -267 1 -58 -28 -120 -87 -147 -138 l-20 -38
0 140 -1 140 72 17 c39 10 104 33 142 53 62 30 78 34 131 31 33 -2 87 -13 119
-25z m-1647 -695 c24 -14 74 -39 112 -54 l68 -27 -30 -82 -30 -83 -96 89
c-144 134 -144 133 -149 198 l-5 57 44 -36 c24 -19 63 -47 86 -62z m523 -1210
l0 -204 -96 -4 c-91 -4 -98 -6 -120 -32 -31 -35 -30 -71 1 -101 l24 -25 511 0
510 0 0 -195 0 -195 -643 0 c-737 0 -716 -2 -797 79 -75 75 -80 100 -80 401 0
169 4 269 12 291 29 85 108 160 191 179 18 5 134 8 260 9 l227 1 0 -204z
m1210 -535 c18 -13 45 -66 97 -197 40 -98 72 -182 73 -186 0 -5 -30 -8 -67 -8
l-68 1 -64 75 c-69 82 -89 94 -157 94 l-44 0 0 118 c0 65 3 122 7 126 15 14
196 -5 223 -23z"/>
<path d="M3641 1694 c-41 -52 -34 -65 145 -245 92 -92 177 -170 190 -173 54
-14 105 40 91 97 -4 12 -80 95 -170 185 -151 149 -166 162 -199 162 -28 0 -42
-7 -57 -26z"/>
<path d="M1941 4462 c-33 -26 -31 -79 3 -109 43 -37 87 -27 115 24 36 68 -57
135 -118 85z"/>
<path d="M693 900 c-18 -10 -39 -30 -48 -44 -9 -14 -30 -105 -47 -210 -36
-216 -33 -246 29 -293 l36 -28 431 -3 c476 -3 473 -3 520 61 19 26 21 44 24
230 2 188 1 204 -18 235 -11 18 -34 41 -52 52 -32 19 -51 20 -438 20 -384 0
-407 -1 -437 -20z m787 -275 l0 -145 -375 0 c-206 0 -375 3 -375 6 0 11 41
259 45 272 3 9 83 12 355 12 l350 0 0 -145z"/>
</g>
</svg>
