<?xml version="1.0" standalone="no"?>
<!DOCTYPE svg PUBLIC "-//W3C//DTD SVG 20010904//EN"
 "http://www.w3.org/TR/2001/REC-SVG-20010904/DTD/svg10.dtd">
<svg version="1.0" xmlns="http://www.w3.org/2000/svg"
 width="512.000000pt" height="512.000000pt" viewBox="0 0 512.000000 512.000000"
 preserveAspectRatio="xMidYMid meet">

<g transform="translate(0.000000,512.000000) scale(0.100000,-0.100000)"
fill="#000000" stroke="none">
<path d="M1269 4823 c-10 -12 -15 -59 -17 -177 -3 -153 -2 -163 18 -189 29
-36 71 -36 99 -1 19 24 21 40 21 183 0 183 -6 201 -69 201 -24 0 -44 -6 -52
-17z"/>
<path d="M812 4704 c-35 -24 -28 -68 23 -156 25 -43 45 -80 45 -82 0 -18 74
-116 88 -118 34 -3 56 3 74 19 19 17 24 63 9 79 -14 14 -109 182 -116 204 -8
25 -62 70 -84 70 -9 0 -27 -7 -39 -16z"/>
<path d="M1734 4684 c-19 -19 -34 -41 -34 -47 0 -7 -11 -28 -24 -48 -42 -61
-96 -167 -96 -187 0 -35 40 -58 92 -54 15 2 88 100 88 120 0 4 14 27 30 52 71
105 80 163 31 189 -33 18 -52 13 -87 -25z"/>
<path d="M3220 4646 c-117 -33 -226 -118 -276 -218 -29 -57 -171 -585 -180
-668 -14 -123 36 -251 136 -350 73 -73 144 -112 253 -139 l72 -19 0 -355 c0
-195 -3 -359 -7 -363 -4 -4 -143 44 -309 105 -165 62 -316 115 -334 118 -36 6
-125 -29 -125 -49 0 -13 -57 -3 -128 24 -40 15 -77 42 -142 104 -49 46 -100
86 -115 90 -35 9 -93 -15 -119 -49 -18 -25 -21 -42 -21 -155 0 -112 3 -132 22
-168 12 -23 95 -111 188 -200 l166 -159 457 -171 c298 -112 458 -177 460 -187
2 -8 -9 -24 -24 -36 -26 -21 -33 -21 -496 -21 -445 0 -472 -1 -529 -20 -79
-27 -123 -56 -182 -119 -103 -110 -120 -190 -115 -547 l3 -259 32 -68 c38 -79
114 -163 181 -200 105 -57 100 -57 917 -57 l750 0 60 -72 c32 -39 74 -77 92
-84 50 -21 239 -19 283 4 47 23 74 73 73 134 l-1 48 70 37 c126 66 232 196
272 332 9 30 16 69 16 87 0 68 31 88 49 32 20 -63 141 -719 141 -764 0 -25 -5
-54 -10 -65 -11 -19 -47 -19 -2295 -19 l-2283 0 -31 26 c-24 20 -31 34 -31 61
0 56 131 726 146 751 8 13 26 27 40 32 15 6 279 10 654 10 l629 0 21 27 c26
33 21 79 -11 106 -20 16 -66 17 -661 17 -462 0 -652 -3 -680 -12 -52 -15 -122
-78 -141 -126 -17 -41 -157 -764 -157 -808 0 -79 68 -180 145 -215 38 -18 133
-19 2415 -19 2282 0 2377 1 2415 19 77 35 145 136 145 215 0 44 -140 767 -157
808 -19 48 -89 111 -141 126 -22 7 -76 12 -120 12 l-81 0 -4 623 c-4 683 -5
692 -72 892 -121 361 -391 669 -660 755 -22 7 -43 14 -46 16 -4 2 17 40 46 84
69 105 140 321 165 502 20 140 -26 274 -126 373 -68 68 -108 86 -338 150 -212
59 -276 66 -366 41z m213 -645 c218 -65 400 -121 404 -125 10 -10 -14 -91 -48
-163 -54 -114 -178 -225 -304 -272 -77 -29 -177 -40 -265 -29 -168 20 -273
113 -302 266 -10 53 -7 69 38 250 37 144 52 192 64 192 8 -1 194 -54 413 -119z
m411 -670 c96 -34 164 -80 261 -176 169 -169 279 -375 336 -633 22 -93 22
-122 26 -782 5 -732 3 -761 -44 -853 -35 -70 -106 -142 -170 -173 -29 -15 -55
-25 -57 -23 -2 2 -22 52 -46 112 -23 59 -54 125 -69 147 -57 86 -140 120 -288
120 -82 0 -93 2 -93 18 0 26 -35 79 -67 99 -24 16 -62 18 -393 23 l-365 5 -3
208 -2 207 162 0 c151 0 167 2 215 24 53 25 108 86 119 133 4 13 7 23 8 23 1
0 29 5 61 11 84 15 144 49 203 113 51 57 77 111 157 339 l28 78 -20 27 c-28
38 -67 50 -101 32 -21 -12 -38 -47 -88 -179 -46 -120 -71 -172 -95 -197 -42
-44 -106 -68 -161 -62 -35 5 -891 318 -904 331 -3 2 10 45 28 95 30 84 34 91
55 86 13 -4 34 -3 48 0 28 7 60 59 51 83 -5 11 -2 13 11 8 165 -64 604 -225
616 -225 43 0 67 44 168 315 55 149 107 280 115 293 38 58 138 80 210 46 41
-19 84 -87 84 -131 0 -16 -13 -67 -29 -113 -23 -67 -27 -89 -19 -112 18 -52
88 -66 125 -25 35 39 77 173 77 246 0 118 -70 228 -179 281 -71 35 -199 35
-267 1 -58 -28 -120 -87 -147 -138 l-20 -38 0 140 -1 140 72 17 c39 10 104 33
142 53 62 30 78 34 131 31 33 -2 87 -13 119 -25z m-1647 -695 c24 -14 74 -39
112 -54 l68 -27 -30 -82 -30 -83 -96 89 c-144 134 -144 133 -149 198 l-5 57
44 -36 c24 -19 63 -47 86 -62z m523 -1210 l0 -204 -96 -4 c-91 -4 -98 -6 -120
-32 -31 -35 -30 -71 1 -101 l24 -25 511 0 510 0 0 -195 0 -195 -643 0 c-737 0
-716 -2 -797 79 -75 75 -80 100 -80 401 0 169 4 269 12 291 29 85 108 160 191
179 18 5 134 8 260 9 l227 1 0 -204z m1210 -535 c18 -13 45 -66 97 -197 40
-98 72 -182 73 -186 0 -5 -30 -8 -67 -8 l-68 1 -64 75 c-69 82 -89 94 -157 94
l-44 0 0 118 c0 65 3 122 7 126 15 14 196 -5 223 -23z"/>
<path d="M3641 1694 c-41 -52 -34 -65 145 -245 92 -92 177 -170 190 -173 54
-14 105 40 91 97 -4 12 -80 95 -170 185 -151 149 -166 162 -199 162 -28 0 -42
-7 -57 -26z"/>
<path d="M456 4348 c-9 -12 -16 -31 -16 -42 0 -20 64 -86 83 -86 7 0 28 -11
48 -24 70 -48 171 -97 191 -94 12 2 30 15 41 30 30 40 17 71 -48 113 -31 19
-59 35 -63 35 -4 0 -27 14 -52 30 -94 64 -157 77 -184 38z"/>
<path d="M2070 4352 c-19 -10 -53 -30 -75 -45 -22 -15 -43 -27 -47 -27 -19 0
-118 -73 -120 -88 -4 -52 19 -92 55 -92 10 0 60 23 111 52 50 28 107 60 126
70 43 24 80 63 80 86 0 57 -62 78 -130 44z"/>
<path d="M1168 4304 c-313 -100 -438 -483 -245 -750 195 -269 598 -270 793 -1
61 84 85 152 91 264 5 79 2 103 -17 165 -27 82 -38 103 -93 171 -127 154 -334
214 -529 151z m288 -136 c82 -32 161 -114 194 -198 112 -290 -171 -572 -461
-459 -149 58 -249 230 -220 381 15 80 48 146 101 199 103 103 247 132 386 77z"/>
<path d="M342 3894 c-19 -13 -22 -24 -20 -57 4 -61 23 -67 204 -67 138 0 154
2 178 21 17 13 26 30 26 47 -1 63 -28 72 -212 72 -124 0 -158 -3 -176 -16z"/>
<path d="M1936 3889 c-17 -13 -26 -30 -26 -49 0 -19 9 -36 26 -49 24 -19 40
-21 183 -21 183 0 201 6 201 70 0 64 -18 70 -201 70 -143 0 -159 -2 -183 -21z"/>
<path d="M690 3555 c-19 -14 -38 -25 -42 -25 -4 0 -32 -16 -62 -35 -30 -19
-59 -35 -65 -35 -18 0 -81 -67 -81 -86 0 -11 7 -30 16 -42 27 -39 90 -26 184
38 25 16 48 30 52 30 4 0 32 16 63 35 65 42 78 73 48 113 -27 36 -68 38 -113
7z"/>
<path d="M1848 3563 c-39 -46 -28 -92 29 -123 21 -11 61 -34 88 -50 147 -87
191 -99 219 -58 9 12 16 30 16 39 0 22 -45 76 -70 84 -22 7 -190 102 -204 116
-16 15 -62 10 -78 -8z"/>
<path d="M964 3330 c-19 -7 -46 -46 -95 -135 -9 -16 -30 -55 -47 -85 -38 -66
-41 -112 -10 -134 12 -9 30 -16 39 -16 22 0 76 45 84 70 7 22 102 190 116 205
18 19 9 63 -17 84 -29 23 -38 24 -70 11z"/>
<path d="M1606 3319 c-14 -11 -26 -29 -26 -40 0 -19 43 -106 93 -187 12 -20
30 -50 39 -67 26 -48 63 -71 95 -59 15 5 33 20 40 33 14 30 -3 80 -54 156 -18
27 -33 53 -33 57 0 4 -16 32 -35 62 -46 72 -72 82 -119 45z"/>
<path d="M1271 3224 c-19 -24 -21 -40 -21 -178 0 -181 6 -200 67 -204 66 -5
73 13 73 196 0 184 -9 211 -72 212 -17 0 -34 -9 -47 -26z"/>
<path d="M693 900 c-18 -10 -39 -30 -48 -44 -9 -14 -30 -105 -47 -210 -36
-216 -33 -246 29 -293 l36 -28 431 -3 c476 -3 473 -3 520 61 19 26 21 44 24
230 2 188 1 204 -18 235 -11 18 -34 41 -52 52 -32 19 -51 20 -438 20 -384 0
-407 -1 -437 -20z m787 -275 l0 -145 -375 0 c-206 0 -375 3 -375 6 0 11 41
259 45 272 3 9 83 12 355 12 l350 0 0 -145z"/>
</g>
</svg>
