<?xml version="1.0" standalone="no"?>
<!DOCTYPE svg PUBLIC "-//W3C//DTD SVG 20010904//EN"
 "http://www.w3.org/TR/2001/REC-SVG-20010904/DTD/svg10.dtd">
<svg version="1.0" xmlns="http://www.w3.org/2000/svg"
 width="512.000000pt" height="512.000000pt" viewBox="0 0 512.000000 512.000000"
 preserveAspectRatio="xMidYMid meet">
<metadata>
Created by potrace 1.16, written by Peter Selinger 2001-2019
</metadata>
<g transform="translate(0.000000,512.000000) scale(0.100000,-0.100000)"
fill="#000000" stroke="none">
<path d="M2513 3711 c-9 -11 -20 -18 -23 -16 -4 3 -8 -66 -9 -152 -1 -86 -5
-161 -8 -166 -3 -6 -2 -7 4 -4 5 3 21 -7 36 -22 28 -30 61 -41 102 -33 14 2
38 17 52 33 15 15 31 25 36 22 6 -3 7 -2 4 4 -3 5 -7 80 -8 166 -1 86 -5 155
-9 152 -3 -2 -14 5 -23 16 -13 15 -30 19 -77 19 -47 0 -64 -4 -77 -19z"/>
<path d="M1720 3505 c-7 -8 -16 -12 -21 -9 -5 3 -6 -2 -3 -10 3 -9 1 -16 -5
-16 -20 0 -12 -88 12 -133 12 -23 25 -44 29 -47 4 -3 9 -16 11 -28 2 -12 7
-25 12 -29 4 -5 5 -2 1 5 -4 6 -5 12 -2 12 6 0 56 -96 56 -107 -1 -21 126 -20
149 1 10 9 21 13 25 9 4 -4 4 1 0 11 -5 12 -4 17 3 13 6 -4 10 14 12 43 2 39
-4 61 -30 107 -18 32 -38 63 -45 70 -7 7 -15 26 -19 43 -4 16 -11 30 -17 30
-6 0 -8 3 -5 7 4 3 -5 15 -20 25 -35 23 -125 25 -143 3z"/>
<path d="M3315 3500 c-16 -11 -25 -20 -20 -20 6 0 4 -4 -3 -9 -11 -7 -18 -23
-21 -53 -1 -4 -7 -13 -14 -20 -8 -7 -28 -39 -46 -71 -26 -46 -32 -68 -30 -107
2 -29 6 -47 12 -43 7 4 8 -1 3 -13 -4 -10 -4 -15 0 -11 4 4 15 0 25 -9 23 -21
150 -22 149 -1 0 11 50 107 56 107 3 0 2 -6 -2 -12 -4 -7 -3 -10 1 -5 5 4 10
17 12 29 2 12 7 25 11 28 4 3 17 24 30 47 23 45 31 133 11 133 -6 0 -8 7 -5
16 3 8 2 13 -3 10 -5 -3 -14 1 -21 9 -19 23 -108 20 -145 -5z"/>
<path d="M2390 3040 c-172 -32 -326 -101 -439 -195 -45 -37 -146 -139 -163
-165 -10 -14 -23 -25 -30 -25 -7 0 -13 -7 -13 -15 0 -8 -16 -40 -36 -70 -75
-114 -122 -241 -138 -370 -6 -47 -11 -96 -11 -110 l0 -25 197 0 c139 -1 207
-5 228 -14 17 -7 50 -16 75 -21 57 -10 122 -35 114 -42 -3 -3 1 -5 8 -5 15 2
161 -45 168 -54 9 -11 72 -29 81 -23 5 3 9 1 9 -4 0 -13 18 -15 150 -15 132 0
150 2 150 15 0 5 4 7 10 3 5 -3 26 2 47 11 88 37 197 73 207 67 6 -3 8 -2 3 2
-9 10 50 33 113 45 25 5 59 14 75 21 21 9 88 13 228 13 l197 0 0 31 c0 140
-64 346 -146 471 -21 32 -39 66 -39 74 0 8 -6 15 -13 15 -7 0 -20 11 -30 25
-17 26 -118 128 -163 165 -207 173 -542 251 -839 195z"/>
<path d="M1170 2943 c-8 -3 -27 -19 -42 -34 -23 -24 -28 -38 -28 -82 0 -64 14
-85 76 -116 27 -14 63 -34 79 -47 17 -12 40 -25 53 -29 12 -3 22 -9 22 -13 0
-12 89 -5 105 8 8 7 15 9 15 5 0 -16 41 40 47 64 3 13 0 43 -8 65 -11 32 -24
45 -61 65 -26 14 -44 29 -42 33 3 5 2 8 -3 7 -9 -2 -45 12 -53 20 -3 3 -28 18
-56 34 -51 27 -74 31 -104 20z"/>
<path d="M3905 2923 c-27 -16 -52 -31 -55 -34 -8 -8 -44 -22 -53 -20 -5 1 -6
-2 -3 -7 2 -4 -16 -19 -42 -33 -74 -39 -93 -120 -42 -179 11 -13 20 -20 20
-15 0 4 7 2 15 -5 16 -13 105 -20 105 -8 0 4 10 10 23 13 12 4 36 17 52 29 17
13 52 33 79 47 62 31 76 52 76 116 0 45 -4 58 -29 84 -41 43 -84 46 -146 12z"/>
<path d="M928 2124 c-33 -17 -42 -47 -36 -119 7 -89 20 -95 197 -95 124 1 149
3 167 18 60 50 60 146 0 194 -18 15 -43 18 -161 17 -105 0 -147 -4 -167 -15z"/>
<path d="M3924 2122 c-60 -48 -60 -144 0 -194 18 -15 43 -17 167 -18 177 0
190 6 197 95 10 122 -11 135 -205 135 -116 0 -141 -3 -159 -18z"/>
<path d="M1140 1853 c-327 -49 -497 -95 -888 -239 -187 -69 -205 -78 -233
-121 -26 -38 -25 -128 0 -167 56 -84 123 -87 322 -12 491 183 753 243 1029
233 173 -6 230 -20 546 -138 350 -130 520 -164 742 -147 132 10 290 52 549
148 317 117 371 131 538 137 270 10 556 -55 1034 -234 164 -61 219 -68 273
-35 47 29 68 70 68 133 0 56 -24 104 -63 129 -11 7 -113 46 -226 87 -475 172
-752 233 -1054 233 -214 0 -313 -24 -757 -185 -386 -140 -525 -142 -880 -15
-518 186 -579 201 -817 199 -87 -1 -169 -3 -183 -6z"/>
<path d="M1660 988 c-113 -7 -199 -23 -325 -62 -141 -43 -425 -145 -447 -160
-39 -28 -58 -68 -58 -126 0 -62 20 -100 66 -131 52 -34 109 -25 325 51 240 84
334 109 455 119 146 12 196 3 451 -90 221 -80 303 -99 433 -99 130 0 212 19
434 99 91 33 194 68 228 77 161 42 396 1 752 -130 108 -41 137 -48 181 -44 88
7 135 59 135 148 0 105 -31 129 -294 219 -276 95 -457 132 -646 132 -136 0
-232 -22 -440 -101 -186 -70 -261 -90 -348 -90 -92 0 -152 15 -351 89 -255 96
-347 112 -551 99z"/>
</g>
</svg>
