<?xml version="1.0" standalone="no"?>
<!DOCTYPE svg PUBLIC "-//W3C//DTD SVG 20010904//EN"
 "http://www.w3.org/TR/2001/REC-SVG-20010904/DTD/svg10.dtd">
<svg version="1.0" xmlns="http://www.w3.org/2000/svg"
 width="512.000000pt" height="512.000000pt" viewBox="0 0 512.000000 512.000000"
 preserveAspectRatio="xMidYMid meet">
<metadata>
Created by potrace 1.16, written by Peter Selinger 2001-2019
</metadata>
<g transform="translate(0.000000,512.000000) scale(0.100000,-0.100000)"
fill="#000000" stroke="none">
<path d="M2418 5097 c-75 -32 -111 -63 -388 -342 -129 -130 -248 -244 -265
-253 -26 -15 -81 -18 -445 -22 l-415 -5 -56 -28 c-67 -33 -151 -117 -182 -184
-21 -46 -22 -61 -27 -463 -4 -326 -8 -420 -19 -440 -7 -14 -137 -149 -287
-301 -327 -330 -329 -333 -329 -499 0 -166 2 -169 329 -499 150 -152 280 -287
287 -301 11 -20 15 -114 19 -440 l5 -415 28 -57 c36 -74 101 -139 175 -175
l57 -28 415 -5 c326 -4 420 -8 440 -19 14 -7 149 -137 301 -287 330 -327 333
-329 499 -329 166 0 169 2 499 329 152 150 287 280 301 287 20 11 114 15 440
19 402 5 417 6 463 27 67 31 151 115 184 182 l28 56 5 415 c4 326 8 420 19
440 7 14 137 149 287 301 327 330 329 333 329 499 0 166 -2 169 -329 499 -150
152 -280 287 -287 301 -11 20 -15 114 -19 440 l-5 415 -28 56 c-33 67 -118
151 -184 181 -41 19 -70 23 -206 26 -154 4 -160 3 -183 -19 -30 -28 -32 -77
-5 -110 18 -23 27 -24 168 -30 81 -4 150 -7 153 -8 2 0 -25 -30 -60 -66 l-64
-65 -326 0 c-190 0 -351 5 -386 11 -32 6 -93 27 -134 46 -69 33 -96 57 -327
286 l-253 251 0 88 0 89 23 -12 c12 -7 146 -134 297 -284 162 -160 291 -281
315 -293 58 -28 133 -42 236 -42 82 0 92 2 114 25 33 32 34 86 3 115 -19 17
-35 20 -112 20 -155 0 -137 -12 -452 301 -330 327 -337 332 -494 337 -82 2
-103 -1 -152 -21z m-190 -573 c-232 -230 -259 -254 -328 -287 -41 -19 -102
-40 -134 -46 -35 -6 -196 -11 -386 -11 l-326 0 -63 64 c-59 60 -61 64 -39 69
12 4 186 7 385 7 381 0 433 5 513 46 29 14 127 105 275 254 127 128 257 255
290 283 l60 50 3 -89 3 -89 -253 -251z m576 -142 c216 -214 249 -242 321 -279
143 -73 157 -76 547 -80 l346 -5 5 -346 c4 -390 7 -404 80 -547 37 -72 65
-105 281 -322 l240 -243 -240 -242 c-216 -218 -244 -251 -281 -323 -73 -143
-76 -157 -80 -547 l-5 -346 -346 -5 c-390 -4 -404 -7 -547 -80 -72 -37 -105
-65 -322 -281 l-243 -240 -242 240 c-218 216 -251 244 -323 281 -91 47 -169
70 -272 79 -68 6 -73 5 -97 -19 -51 -51 -20 -137 49 -137 64 0 152 -22 225
-57 69 -33 96 -57 327 -286 l253 -251 0 -88 c0 -73 -2 -88 -14 -81 -8 4 -139
131 -292 282 -240 236 -288 278 -344 305 l-65 31 -415 6 c-228 3 -417 6 -420
7 -2 1 25 31 60 67 l64 65 153 0 c140 0 155 2 173 20 31 31 27 93 -6 119 -24
19 -40 21 -150 21 l-122 0 -5 348 c-4 390 -7 404 -80 547 -37 72 -65 105 -281
323 l-240 242 240 243 c216 217 244 250 281 322 73 143 76 157 80 547 l5 346
346 5 c390 4 404 7 547 80 72 37 104 65 320 279 132 131 242 238 244 238 3 0
113 -107 245 -238z m-1866 -677 c-5 -494 10 -458 -347 -817 l-245 -248 -88 0
-89 0 12 23 c7 12 137 148 289 302 230 233 281 289 301 335 24 55 24 58 30
470 3 228 6 417 7 420 1 2 31 -25 68 -60 l65 -65 -3 -360z m3382 62 c5 -409 5
-412 29 -467 20 -46 71 -102 301 -335 152 -154 282 -290 289 -302 l12 -23 -89
0 -88 0 -251 253 c-229 231 -253 258 -286 327 -19 41 -40 102 -46 134 -6 35
-11 196 -11 385 l0 325 62 63 c34 34 64 60 67 57 3 -3 8 -191 11 -417z m-3723
-1539 c229 -232 253 -259 286 -328 19 -41 40 -102 46 -134 6 -35 11 -196 11
-386 l0 -326 -65 -64 c-36 -35 -66 -62 -67 -60 -1 3 -4 192 -7 420 l-6 415
-31 66 c-28 59 -65 100 -304 340 -149 151 -276 282 -281 292 -9 16 -2 17 79
17 l88 0 251 -252z m4342 230 c-7 -13 -137 -149 -289 -303 -230 -233 -281
-289 -301 -335 -24 -55 -24 -58 -30 -470 -3 -228 -6 -417 -7 -420 -1 -2 -31
25 -67 60 l-65 64 0 326 c0 190 5 351 11 386 6 32 27 93 46 134 33 69 57 96
286 328 l251 252 88 0 89 0 -12 -22z m-809 -1583 c35 -36 62 -66 60 -67 -3 -1
-192 -4 -420 -7 -412 -6 -415 -6 -470 -30 -46 -20 -102 -71 -335 -301 -154
-152 -290 -282 -302 -289 l-23 -12 0 89 0 88 253 251 c230 228 259 253 327
286 41 20 98 40 125 45 28 6 201 10 385 11 l336 1 64 -65z"/>
<path d="M2176 3809 l-26 -20 0 -165 c0 -179 8 -214 58 -267 69 -73 183 -93
274 -49 l47 23 43 -22 c99 -53 232 -19 295 74 39 58 46 107 41 281 -3 120 -4
129 -27 147 -30 25 -72 24 -105 -2 -26 -20 -26 -21 -26 -159 0 -154 -7 -182
-52 -201 -25 -10 -33 -9 -56 8 -27 20 -27 21 -32 177 -5 151 -6 159 -29 177
-30 25 -72 24 -105 -2 -26 -20 -26 -21 -26 -159 0 -154 -7 -182 -52 -201 -25
-10 -33 -9 -56 8 -27 20 -27 21 -32 177 -5 151 -6 159 -29 177 -30 25 -72 24
-105 -2z"/>
<path d="M3509 3230 c-41 -21 -96 -80 -110 -117 -16 -43 -10 -103 22 -210 17
-58 27 -108 23 -113 -5 -4 -157 -43 -339 -86 -361 -86 -380 -94 -405 -170 -23
-70 13 -157 77 -182 16 -6 204 -41 418 -77 215 -36 400 -67 411 -70 28 -6 38
-33 22 -57 -14 -21 -1206 -541 -1220 -532 -13 8 -54 93 -74 154 -17 50 -19
106 -22 650 -3 590 -3 595 -24 617 -27 29 -77 30 -109 4 l-24 -19 -3 -507 -3
-507 -332 4 -332 3 -57 28 c-108 53 -148 132 -148 291 0 110 -10 139 -56 157
-36 13 -91 -12 -100 -46 -3 -14 -5 -83 -2 -154 3 -121 5 -131 38 -197 43 -88
112 -156 198 -197 l67 -32 365 -3 365 -3 17 -87 c48 -244 211 -420 433 -467
97 -20 137 -19 169 6 20 16 26 29 26 58 0 53 -24 70 -120 87 -75 13 -127 30
-118 39 1 2 255 112 563 245 307 133 571 248 585 257 78 46 109 175 64 264
-16 32 -75 85 -104 94 -12 4 -189 35 -393 70 -205 34 -365 65 -357 68 8 3 206
51 440 107 501 119 526 126 563 152 36 26 77 110 77 159 0 44 -17 96 -41 127
-25 33 -223 181 -265 198 -48 20 -141 17 -185 -6z m199 -196 c132 -97 157
-130 115 -152 -26 -13 -203 -55 -209 -50 -2 3 -19 53 -36 111 -30 104 -31 107
-13 127 29 32 61 24 143 -36z"/>
</g>
</svg>
