<?xml version="1.0" standalone="no"?><!DOCTYPE svg PUBLIC "-//W3C//DTD SVG 20010904//EN"
	"http://www.w3.org/TR/2001/REC-SVG-20010904/DTD/svg10.dtd">
<svg version="1.0" xmlns="http://www.w3.org/2000/svg" width="347.000000px" height="351.000000px"
	viewBox="0 0 347.000000 351.000000" preserveAspectRatio="xMidYMid meet">
	<metadata>
		Created by potrace 1.16, written by Peter Selinger 2001-2019
	</metadata>
	<g transform="translate(0.000000,351.000000) scale(0.100000,-0.100000)" fill="#000000"
		stroke="none">
		<path d="M1300 2600 c-63 -9 -111 -26 -122 -43 -4 -7 -8 -49 -8 -94 l0 -83
-93 0 c-59 0 -97 -4 -105 -12 -9 -9 -12 -82 -12 -265 0 -290 -6 -271 100 -292
30 -6 84 -18 120 -26 36 -9 100 -23 143 -32 86 -18 88 -21 43 -90 l-21 -32
-105 -3 -105 -3 -3 -134 c-2 -90 1 -138 9 -147 9 -11 52 -14 204 -14 l193 0
69 58 c37 31 79 67 92 79 21 19 28 20 41 9 8 -7 50 -43 93 -79 l78 -67 202 2
202 3 3 148 3 147 -104 0 -104 0 -32 51 c-18 27 -32 52 -30 53 2 2 40 11 84
21 44 9 107 23 140 31 33 7 85 19 115 25 106 21 100 2 100 292 0 183 -3 256
-12 265 -8 8 -46 12 -105 12 l-93 0 0 90 c0 89 0 90 -30 105 -42 22 -181 37
-260 30 -74 -8 -168 -36 -226 -69 -39 -22 -39 -22 -71 -3 -100 58 -264 86
-393 67z m266 -104 c23 -8 57 -24 75 -34 l34 -19 3 -221 c1 -122 1 -222 -2
-222 -2 0 -21 7 -42 16 -92 39 -266 56 -342 35 l-32 -10 0 234 0 234 38 4 c65
8 226 -2 268 -17z m624 9 c6 -4 10 -99 10 -237 l0 -230 -22 7 c-13 4 -61 9
-108 12 -91 5 -229 -21 -277 -53 l-23 -15 2 227 3 227 41 22 c35 19 69 30 149
49 26 6 213 -1 225 -9z m-1020 -369 c0 -156 1 -166 21 -180 17 -11 27 -12 52
-3 18 7 87 12 157 12 133 0 177 -12 272 -71 48 -31 67 -30 120 4 54 35 98 51
168 64 62 11 191 4 250 -13 66 -20 70 -9 70 185 l0 166 65 0 65 0 -2 -197 -3
-198 -35 -6 c-19 -4 -64 -14 -100 -22 -36 -9 -108 -25 -160 -37 -160 -36 -222
-51 -290 -67 -82 -20 -108 -20 -195 1 -74 18 -131 31 -285 66 -52 12 -111 26
-130 30 -19 5 -64 15 -100 23 l-65 14 -3 196 -2 197 65 0 65 0 0 -164z m461
-453 c64 -17 127 -14 243 12 l78 17 23 -28 c13 -16 31 -45 41 -64 35 -68 39
-70 136 -70 l88 0 0 -70 0 -70 -143 0 c-133 0 -144 1 -167 23 -58 52 -147 125
-172 141 -22 14 -31 15 -50 5 -13 -7 -25 -15 -28 -18 -3 -3 -32 -28 -65 -56
-33 -27 -71 -59 -84 -72 -22 -22 -31 -23 -167 -23 l-144 0 0 70 0 70 84 0 84
0 29 38 c35 47 50 71 63 100 9 21 15 23 53 17 23 -4 67 -13 98 -22z" />
	</g>
</svg>
