<?xml version="1.0" standalone="no"?>
<!DOCTYPE svg PUBLIC "-//W3C//DTD SVG 20010904//EN"
 "http://www.w3.org/TR/2001/REC-SVG-20010904/DTD/svg10.dtd">
<svg version="1.0" xmlns="http://www.w3.org/2000/svg"
 width="347.000000px" height="351.000000px" viewBox="0 0 347.000000 351.000000"
 preserveAspectRatio="xMidYMid meet">
<metadata>
Created by potrace 1.16, written by Peter Selinger 2001-2019
</metadata>
<g transform="translate(0.000000,351.000000) scale(0.100000,-0.100000)"
fill="#000000" stroke="none">
<path d="M1190 2803 c-82 -5 -190 -24 -190 -33 0 -5 -10 -10 -22 -12 -15 -2
-24 -11 -26 -25 -2 -13 -8 -23 -13 -23 -5 0 -9 -49 -9 -110 l0 -110 -129 0
-129 0 -26 -31 -26 -31 0 -348 0 -348 25 -30 c26 -32 29 -32 175 -62 112 -22
211 -44 260 -58 19 -6 70 -18 112 -27 76 -16 77 -17 66 -41 -6 -13 -14 -24
-18 -24 -3 0 -17 -20 -29 -45 l-22 -45 -144 0 c-117 0 -146 -3 -159 -16 -13
-13 -16 -45 -16 -199 0 -180 1 -185 24 -209 l23 -26 277 0 c177 0 276 4 276
10 0 6 5 10 11 10 9 0 131 100 236 193 l22 20 128 -107 c70 -59 133 -111 140
-116 15 -13 563 -13 563 -1 0 5 9 11 20 14 20 5 20 12 18 214 l-3 208 -150 3
-151 2 -34 53 c-50 75 -53 86 -27 92 76 18 209 48 252 56 28 5 59 14 70 19 11
5 52 14 90 20 114 18 156 33 181 63 l24 29 0 348 0 348 -26 31 -26 31 -126 0
-127 0 3 108 c3 101 2 109 -20 135 -13 15 -31 27 -41 27 -9 0 -17 4 -17 9 0
17 -144 34 -280 33 -132 -1 -239 -14 -249 -31 -4 -5 -25 -12 -48 -16 -23 -3
-53 -15 -65 -24 -13 -10 -38 -25 -57 -34 -32 -16 -38 -16 -78 -1 -24 9 -43 20
-43 25 0 4 -21 15 -47 24 -27 10 -62 23 -78 31 -26 11 -251 37 -280 32 -5 -1
-35 -3 -65 -5z m165 -139 c71 -8 187 -35 205 -48 26 -19 59 -36 71 -36 35 0
38 -30 39 -342 l0 -307 -47 16 c-27 9 -50 20 -53 24 -10 15 -58 28 -129 35
-39 3 -74 11 -77 15 -7 12 -171 12 -176 1 -1 -5 -29 -12 -60 -15 l-58 -6 0
323 0 324 31 6 c17 3 50 6 73 7 22 1 52 5 66 9 14 5 34 6 45 4 11 -2 43 -7 70
-10z m965 -4 c41 -5 78 -9 83 -9 4 -1 7 -147 7 -326 l0 -325 -62 7 c-35 3 -64
10 -66 15 -5 11 -138 10 -160 -1 -9 -6 -54 -14 -100 -19 -46 -6 -91 -17 -100
-25 -9 -8 -38 -21 -64 -30 l-48 -16 0 307 c1 318 4 342 42 342 8 0 31 10 49
23 38 26 147 56 206 58 21 1 49 5 63 9 14 5 36 7 50 4 14 -3 59 -9 100 -14z
m-1390 -529 c0 -207 1 -222 22 -257 l21 -36 61 7 c33 3 71 12 85 20 36 18 165
27 231 16 122 -21 320 -95 320 -120 0 -5 13 -14 30 -21 35 -15 92 -6 111 16
21 25 126 73 214 96 106 29 251 35 317 13 62 -20 178 -32 178 -18 0 5 9 21 20
33 20 23 21 35 18 247 l-3 223 78 0 77 0 0 -274 0 -273 -47 -12 c-27 -7 -56
-17 -65 -21 -9 -5 -66 -17 -125 -25 -59 -9 -109 -21 -111 -26 -2 -5 -13 -9
-25 -9 -27 0 -170 -32 -177 -40 -3 -3 -57 -14 -120 -24 -63 -9 -124 -21 -135
-26 -11 -5 -31 -11 -45 -14 -14 -3 -46 -10 -72 -17 -38 -10 -58 -10 -95 0 -27
7 -59 14 -73 17 -14 3 -34 9 -45 14 -11 5 -72 17 -135 26 -63 10 -117 21 -120
24 -7 8 -150 40 -177 40 -12 0 -23 4 -25 9 -1 5 -52 17 -111 26 -59 8 -116 20
-125 25 -9 4 -38 14 -64 21 l-48 12 0 273 0 274 80 0 80 0 0 -219z m1182 -690
c20 -41 63 -108 79 -121 3 -3 8 -13 12 -22 6 -16 22 -18 137 -18 l130 0 0 -95
0 -95 -204 0 -204 0 -33 35 c-19 19 -37 35 -40 35 -4 0 -25 17 -47 38 -22 20
-57 51 -78 67 -20 17 -48 40 -62 53 -31 27 -77 29 -106 2 -11 -10 -52 -45 -91
-77 -109 -90 -116 -96 -147 -125 l-29 -28 -209 0 -210 0 0 95 0 95 128 0 c124
1 162 9 162 37 0 6 13 26 29 46 15 20 34 51 42 69 22 53 44 72 76 64 15 -4 48
-11 73 -15 25 -5 72 -16 105 -25 32 -9 84 -16 115 -16 31 0 83 7 115 16 33 9
80 20 105 24 25 5 59 12 75 18 37 11 48 4 77 -57z"/>
</g>
</svg>
