<?xml version="1.0" standalone="no"?>
<!DOCTYPE svg PUBLIC "-//W3C//DTD SVG 20010904//EN"
 "http://www.w3.org/TR/2001/REC-SVG-20010904/DTD/svg10.dtd">
<svg version="1.0" xmlns="http://www.w3.org/2000/svg"
 width="512.000000px" height="512.000000px" viewBox="0 0 512.000000 512.000000"
 preserveAspectRatio="xMidYMid meet">
<metadata>
Created by potrace 1.16, written by Peter Selinger 2001-2019
</metadata>
<g transform="translate(0.000000,512.000000) scale(0.100000,-0.100000)"
fill="#000000" stroke="none">
<path d="M2190 5044 c-216 -58 -351 -115 -502 -215 -98 -64 -338 -297 -338
-328 0 -5 -4 -11 -8 -13 -11 -5 -90 -125 -97 -149 -10 -29 25 -73 60 -77 26
-3 75 29 75 50 0 14 90 140 146 204 88 100 265 241 287 227 5 -3 7 -2 4 4 -12
19 322 167 339 150 3 -2 -11 -29 -31 -58 -128 -194 -202 -440 -212 -709 -5
-135 -9 -160 -28 -190 -30 -49 -49 -137 -43 -203 4 -51 3 -56 -18 -61 -31 -8
-102 -91 -114 -135 -23 -83 -7 -157 47 -220 60 -70 98 -81 286 -81 l162 0 53
-64 c29 -35 70 -79 92 -97 21 -18 36 -37 33 -43 -3 -5 -2 -6 4 -3 5 3 25 -8
44 -24 77 -68 220 -151 364 -213 119 -51 305 -92 439 -97 l58 -3 -33 -28 c-58
-48 -201 -129 -299 -170 -108 -45 -226 -75 -342 -86 -94 -8 -98 -7 -98 42 0
26 -28 84 -64 130 -33 44 -110 94 -163 108 -27 6 -43 16 -43 26 0 22 -67 100
-109 126 -42 26 -106 46 -147 46 -21 0 -36 10 -54 34 -52 70 -164 126 -253
126 -68 0 -140 -26 -202 -72 l-50 -37 -33 52 c-40 63 -104 195 -125 257 -31
95 -37 118 -53 200 -12 57 -17 140 -18 250 -1 91 -5 171 -9 178 -13 19 -81 15
-100 -6 -24 -26 -25 -363 -1 -460 42 -174 59 -222 126 -357 57 -115 69 -137
87 -159 8 -9 9 -16 3 -16 -5 0 -29 -16 -52 -35 -23 -19 -39 -35 -34 -35 4 0 0
-8 -8 -17 -20 -23 -48 -109 -48 -146 0 -16 -12 -45 -28 -66 -49 -64 -62 -105
-62 -195 0 -105 22 -160 94 -232 98 -97 78 -94 627 -94 l479 0 65 31 c68 32
126 88 150 147 13 30 17 32 62 32 55 0 195 24 264 46 26 8 54 14 63 14 8 0 30
6 48 14 18 8 51 22 73 31 74 30 179 87 250 134 39 25 75 44 80 43 6 -2 7 -1 3
3 -4 4 14 24 40 45 70 56 152 146 152 168 0 11 -8 30 -18 42 -18 22 -25 23
-208 25 -153 2 -204 7 -269 23 -244 63 -433 163 -585 309 l-75 72 476 1 c530
0 509 -2 590 69 96 84 126 214 73 325 -14 30 -34 62 -45 72 -14 12 -19 30 -19
64 0 109 -87 206 -195 217 l-55 6 -14 47 c-28 95 -90 166 -187 215 -47 23 -62
26 -156 24 -75 -1 -109 2 -121 12 -104 84 -268 90 -394 17 -52 -31 -123 -108
-143 -154 -10 -25 -22 -33 -61 -43 -27 -7 -57 -15 -66 -18 -16 -4 -18 3 -18
54 0 91 40 287 76 371 8 18 14 37 14 43 0 18 85 180 128 245 22 33 61 84 86
114 50 59 58 96 28 123 -23 21 -105 21 -182 1z m383 -823 c21 -5 41 -12 44
-15 3 -3 -7 -19 -21 -37 -44 -51 -73 -120 -81 -186 -6 -54 -4 -64 14 -82 43
-43 111 -16 111 45 0 43 31 113 66 147 78 78 211 80 294 5 45 -40 61 -76 65
-143 2 -36 9 -74 15 -85 14 -26 55 -36 84 -21 12 7 42 11 66 9 38 -3 48 -8 68
-38 20 -30 23 -43 18 -88 -6 -52 -5 -54 30 -85 80 -71 84 -177 9 -247 l-27
-25 -725 0 -725 0 -24 28 c-51 60 -20 149 56 162 22 4 50 15 62 25 22 17 22
20 11 101 -12 87 -7 143 18 190 34 63 98 99 175 99 46 0 63 5 81 22 13 12 23
29 23 37 1 33 56 116 96 144 61 43 124 55 197 38z m-822 -1316 c41 -15 109
-69 109 -87 0 -5 10 -22 22 -38 20 -28 26 -30 90 -30 98 0 143 -28 161 -101
13 -50 45 -79 88 -79 86 0 169 -82 177 -175 5 -57 -12 -100 -57 -148 -52 -57
-54 -57 -545 -57 -449 0 -451 0 -491 23 -67 38 -114 132 -99 200 10 47 41 104
66 121 33 23 47 55 38 87 -12 40 11 106 46 134 20 17 42 24 72 25 34 0 48 6
69 28 14 15 36 39 50 54 27 29 91 56 134 57 15 1 46 -6 70 -14z"/>
<path d="M3026 5023 c-13 -21 -40 -67 -59 -102 -30 -56 -42 -68 -98 -98 -125
-68 -139 -80 -139 -117 0 -37 15 -53 80 -85 93 -46 125 -70 145 -107 64 -121
82 -147 105 -159 40 -21 74 7 122 101 22 44 45 84 52 91 13 13 106 67 153 88
36 17 53 42 53 79 0 28 -24 46 -140 109 -51 27 -70 44 -88 78 -13 24 -33 62
-45 84 -33 63 -47 75 -83 75 -28 0 -38 -7 -58 -37z m94 -230 c0 -13 48 -50 92
-73 l28 -13 -30 -19 c-17 -10 -33 -18 -37 -18 -10 0 -53 -42 -53 -52 0 -4 -8
-21 -18 -38 l-19 -30 -14 28 c-22 43 -60 92 -73 92 -6 0 -24 9 -41 20 l-29 19
38 16 c44 19 80 55 103 103 l16 33 18 -28 c11 -15 19 -33 19 -40z"/>
<path d="M3686 4531 c-17 -18 -55 -84 -91 -157 -9 -17 -34 -40 -58 -53 -108
-57 -143 -80 -157 -104 -23 -41 1 -72 87 -117 113 -59 115 -62 175 -180 41
-82 76 -107 117 -81 15 10 56 77 93 153 20 40 33 52 93 83 131 69 130 67 133
113 3 38 0 43 -35 65 -21 13 -45 27 -53 30 -81 37 -113 65 -147 127 -65 121
-81 140 -112 140 -15 0 -36 -9 -45 -19z m60 -213 c13 -42 45 -78 92 -102 l47
-24 -35 -18 c-41 -22 -100 -80 -100 -98 0 -8 -6 -19 -13 -25 -11 -8 -19 -1
-37 35 -13 26 -36 54 -52 63 -17 9 -39 23 -50 31 -19 15 -17 16 29 41 35 20
54 39 72 73 27 51 36 56 47 24z"/>
<path d="M1140 1853 c-327 -49 -497 -95 -888 -239 -187 -69 -205 -78 -233
-121 -26 -38 -25 -128 0 -167 56 -84 123 -87 322 -12 491 183 753 243 1029
233 173 -6 230 -20 546 -138 350 -130 520 -164 742 -147 132 10 290 52 549
148 317 117 371 131 538 137 270 10 556 -55 1034 -234 164 -61 219 -68 273
-35 47 29 68 70 68 133 0 56 -24 104 -63 129 -11 7 -113 46 -226 87 -475 172
-752 233 -1054 233 -214 0 -313 -24 -757 -185 -386 -140 -525 -142 -880 -15
-518 186 -579 201 -817 199 -87 -1 -169 -3 -183 -6z"/>
<path d="M1660 988 c-113 -7 -199 -23 -325 -62 -141 -43 -425 -145 -447 -160
-39 -28 -58 -68 -58 -126 0 -62 20 -100 66 -131 52 -34 109 -25 325 51 240 84
334 109 455 119 146 12 196 3 451 -90 221 -80 303 -99 433 -99 130 0 212 19
434 99 91 33 194 68 228 77 161 42 396 1 752 -130 108 -41 137 -48 181 -44 88
7 135 59 135 148 0 105 -31 129 -294 219 -276 95 -457 132 -646 132 -136 0
-232 -22 -440 -101 -186 -70 -261 -90 -348 -90 -92 0 -152 15 -351 89 -255 96
-347 112 -551 99z"/>
</g>
</svg>
