<?xml version="1.0" standalone="no"?>
<!DOCTYPE svg PUBLIC "-//W3C//DTD SVG 20010904//EN"
 "http://www.w3.org/TR/2001/REC-SVG-20010904/DTD/svg10.dtd">
<svg version="1.0" xmlns="http://www.w3.org/2000/svg"
 width="512.000000pt" height="512.000000pt" viewBox="0 0 512.000000 512.000000"
 preserveAspectRatio="xMidYMid meet">
<metadata>
Created by potrace 1.16, written by Peter Selinger 2001-2019
</metadata>
<g transform="translate(0.000000,512.000000) scale(0.100000,-0.100000)"
fill="#000000" stroke="none">
<path d="M2560 4983 c-20 -26 -21 -36 -18 -240 3 -202 4 -214 25 -234 29 -30
97 -30 126 0 21 20 22 32 25 234 3 204 2 214 -18 240 -18 23 -29 27 -70 27
-41 0 -52 -4 -70 -27z"/>
<path d="M1437 4752 c-19 -20 -27 -39 -27 -65 0 -35 13 -50 228 -266 125 -125
237 -231 249 -235 12 -4 37 0 58 8 41 17 71 73 59 109 -4 12 -110 124 -235
250 -218 217 -230 227 -267 227 -29 0 -45 -7 -65 -28z"/>
<path d="M3491 4552 c-125 -125 -231 -237 -235 -249 -4 -12 0 -37 8 -58 17
-41 73 -71 109 -59 12 4 124 110 250 235 217 218 227 230 227 267 0 52 -41 92
-93 92 -35 0 -50 -13 -266 -228z"/>
<path d="M2111 4724 c-23 -19 -31 -34 -31 -58 0 -34 62 -189 86 -217 8 -9 12
-18 9 -21 -3 -2 1 -5 7 -6 7 -1 27 -4 44 -8 72 -14 127 51 103 123 -25 79 -77
181 -100 197 -35 24 -82 20 -118 -10z"/>
<path d="M3031 4734 c-23 -16 -75 -118 -100 -197 -32 -96 75 -167 148 -99 35
32 101 182 101 228 0 65 -92 107 -149 68z"/>
<path d="M2513 4326 c-92 -18 -165 -42 -231 -78 -29 -16 -58 -25 -64 -22 -6 4
-8 3 -5 -3 4 -6 -18 -27 -48 -47 -60 -42 -119 -102 -160 -164 -15 -23 -32 -39
-38 -35 -5 3 -7 1 -4 -4 4 -6 -9 -41 -28 -79 -105 -207 -105 -461 0 -668 19
-38 32 -73 28 -79 -3 -5 -1 -7 4 -4 6 4 23 -12 38 -35 41 -62 100 -122 160
-164 30 -20 52 -41 48 -47 -3 -6 -1 -7 4 -4 6 4 41 -9 79 -28 106 -53 210 -77
334 -77 124 0 228 24 334 77 38 19 73 32 79 28 5 -3 7 -2 4 4 -4 6 18 27 48
47 60 42 119 102 160 164 15 23 32 39 38 35 5 -3 7 -1 4 4 -4 6 9 41 28 79 53
106 77 210 77 334 0 124 -24 228 -77 334 -19 38 -32 73 -28 79 3 5 2 7 -4 4
-6 -4 -27 18 -47 48 -42 60 -102 119 -164 160 -23 15 -39 32 -35 38 3 5 1 7
-4 4 -6 -4 -41 9 -79 28 -135 68 -316 96 -451 71z"/>
<path d="M1466 4079 c-30 -36 -34 -83 -10 -118 16 -23 118 -75 197 -100 48
-16 91 -1 112 40 37 71 2 120 -124 173 -106 45 -141 46 -175 5z"/>
<path d="M3614 4072 c-45 -21 -88 -43 -96 -49 -8 -7 -17 -11 -20 -8 -2 3 -5
-1 -6 -7 -1 -7 -4 -27 -8 -44 -14 -72 51 -127 123 -103 79 25 181 77 197 100
24 35 20 82 -10 118 -35 42 -75 40 -180 -7z"/>
<path d="M1207 3630 c-23 -18 -27 -29 -27 -70 0 -41 4 -52 27 -70 26 -20 36
-21 240 -18 202 3 214 4 234 25 15 15 22 34 22 63 0 29 -7 48 -22 63 -20 21
-32 22 -234 25 -204 3 -214 2 -240 -18z"/>
<path d="M3605 3640 c-33 -13 -48 -38 -48 -81 0 -28 7 -47 22 -62 20 -21 32
-22 234 -25 204 -3 214 -2 240 18 23 18 27 29 27 70 0 41 -4 52 -26 69 -25 20
-39 21 -228 20 -110 0 -210 -4 -221 -9z"/>
<path d="M1595 3237 c-105 -44 -121 -53 -139 -79 -39 -56 3 -148 68 -148 46 0
196 66 229 101 30 33 34 66 13 108 -14 26 -53 51 -79 51 -7 0 -48 -15 -92 -33z"/>
<path d="M3529 3255 c-33 -18 -53 -66 -45 -102 4 -16 7 -34 8 -40 1 -7 4 -11
6 -8 3 3 12 -1 21 -9 28 -24 183 -86 217 -86 68 0 108 96 64 152 -19 25 -165
94 -217 103 -15 3 -40 -2 -54 -10z"/>
<path d="M1875 2928 c-11 -6 -120 -112 -242 -235 -210 -210 -223 -225 -223
-260 0 -52 40 -93 92 -93 37 0 49 10 267 228 125 125 231 237 235 249 11 36
-18 92 -58 108 -42 18 -45 18 -71 3z"/>
<path d="M3312 2925 c-37 -16 -67 -73 -56 -108 4 -12 110 -124 235 -249 218
-218 231 -228 267 -228 52 0 92 41 92 93 0 35 -13 50 -222 261 -204 204 -252
247 -275 246 -4 -1 -23 -7 -41 -15z"/>
<path d="M2200 2701 c-8 -6 -19 -7 -25 -4 -5 4 -7 2 -2 -2 4 -5 1 -15 -7 -24
-24 -28 -86 -183 -86 -217 0 -65 92 -107 149 -68 23 16 75 118 100 197 10 30
10 44 1 68 -20 47 -91 74 -130 50z"/>
<path d="M2969 2695 c-39 -21 -54 -65 -38 -112 25 -79 77 -181 100 -197 57
-39 149 3 149 68 0 46 -66 196 -101 229 -33 30 -69 34 -110 12z"/>
<path d="M2604 2633 c-12 -2 -30 -13 -40 -25 -17 -18 -19 -42 -22 -232 -3
-203 -2 -213 18 -239 18 -23 29 -27 70 -27 41 0 52 4 70 27 20 26 21 36 18
240 -3 197 -4 214 -23 232 -22 20 -58 30 -91 24z"/>
<path d="M1140 1893 c-327 -49 -497 -95 -888 -239 -187 -69 -205 -78 -233
-121 -26 -38 -25 -128 0 -167 56 -84 123 -87 322 -12 491 183 753 243 1029
233 173 -6 230 -20 546 -138 350 -130 520 -164 742 -147 132 10 290 52 549
148 317 117 371 131 538 137 270 10 556 -55 1034 -234 164 -61 219 -68 273
-35 47 29 68 70 68 133 0 56 -24 104 -63 129 -11 7 -113 46 -226 87 -475 172
-752 233 -1054 233 -214 0 -313 -24 -757 -185 -386 -140 -525 -142 -880 -15
-518 186 -579 201 -817 199 -87 -1 -169 -3 -183 -6z"/>
<path d="M1660 1028 c-113 -7 -199 -23 -325 -62 -141 -43 -425 -145 -447 -160
-39 -28 -58 -68 -58 -126 0 -62 20 -100 66 -131 52 -34 109 -25 325 51 240 84
334 109 455 119 146 12 196 3 451 -90 221 -80 303 -99 433 -99 130 0 212 19
434 99 91 33 194 68 228 77 161 42 396 1 752 -130 108 -41 137 -48 181 -44 88
7 135 59 135 148 0 105 -31 129 -294 219 -276 95 -457 132 -646 132 -136 0
-232 -22 -440 -101 -186 -70 -261 -90 -348 -90 -92 0 -152 15 -351 89 -255 96
-347 112 -551 99z"/>
</g>
</svg>
