<?xml version="1.0" standalone="no"?>
<!DOCTYPE svg PUBLIC "-//W3C//DTD SVG 20010904//EN"
 "http://www.w3.org/TR/2001/REC-SVG-20010904/DTD/svg10.dtd">
<svg version="1.0" xmlns="http://www.w3.org/2000/svg"
 width="512.000000px" height="512.000000px" viewBox="0 0 512.000000 512.000000"
 preserveAspectRatio="xMidYMid meet">

<g transform="translate(0.000000,512.000000) scale(0.100000,-0.100000)"
fill="#000000" stroke="none">
<path d="M4000 4972 c-30 -14 -46 -38 -110 -164 -61 -118 -83 -152 -115 -176
-144 -104 -225 -265 -225 -447 0 -99 20 -180 65 -263 19 -34 35 -64 35 -66 0
-2 -29 -22 -64 -45 -249 -163 -409 -510 -441 -956 -8 -122 -71 -1399 -100
-2040 -14 -314 -28 -576 -30 -582 -3 -10 -71 -13 -295 -13 -259 0 -290 2 -290
16 0 9 -25 410 -55 893 -30 482 -56 902 -57 934 l-3 59 65 24 c102 37 130 55
156 99 31 54 31 105 0 192 -18 49 -36 78 -64 103 -22 20 -47 52 -55 71 -16 39
-82 99 -109 99 -21 0 -33 22 -42 75 -22 127 -88 306 -146 391 -16 25 -30 49
-30 53 0 4 17 13 38 19 58 18 153 83 200 138 83 97 131 240 119 357 -4 48 0
61 50 161 58 117 67 159 39 201 -11 17 -110 72 -306 170 -160 80 -297 145
-306 145 -9 0 -31 -7 -50 -16 -28 -14 -44 -37 -98 -144 -46 -89 -75 -135 -100
-153 -129 -99 -206 -250 -206 -406 0 -64 24 -154 60 -224 17 -31 30 -59 30
-62 0 -2 -13 -11 -28 -19 -93 -48 -207 -179 -276 -316 l-45 -90 -35 74 c-19
41 -48 95 -65 120 -35 50 -37 56 -17 56 46 0 176 82 229 146 82 96 117 193
117 325 0 86 1 90 55 200 30 62 55 123 55 136 0 28 -17 63 -39 81 -31 25 -572
292 -592 292 -51 0 -77 -28 -149 -163 -58 -108 -78 -138 -116 -165 -57 -42
-126 -135 -155 -210 -19 -47 -23 -77 -23 -172 -1 -123 11 -174 62 -255 17 -27
21 -40 12 -43 -6 -2 -39 -25 -73 -51 -158 -119 -279 -334 -331 -587 -25 -119
-35 -262 -71 -994 -76 -1557 -78 -1610 -59 -1631 17 -19 79 -19 2544 -19 2435
0 2528 1 2543 18 10 10 17 25 17 33 0 36 -20 39 -257 39 -178 0 -235 3 -237
13 -10 30 -136 2151 -129 2157 4 4 26 13 48 20 202 63 260 151 206 311 -28 85
-54 126 -96 150 -19 12 -35 28 -35 37 0 50 -93 142 -144 142 -20 0 -28 20 -56
139 -42 179 -96 315 -165 412 l-33 47 57 21 c126 46 244 148 301 261 45 89 60
154 60 261 l0 98 62 125 c65 135 73 174 42 221 -12 19 -114 75 -346 191 -181
90 -336 164 -346 164 -9 0 -33 -8 -52 -18z m370 -232 c195 -98 300 -155 300
-165 0 -21 -98 -215 -109 -215 -17 0 -635 287 -638 296 -2 6 2 18 10 27 11 17
20 14 119 -33 59 -27 113 -50 121 -50 22 0 39 26 35 52 -2 18 -25 34 -108 76
-57 29 -107 55 -109 58 -2 2 6 27 19 54 16 33 30 50 42 50 10 0 153 -68 318
-150z m-145 -331 l320 -146 3 -69 c16 -353 -384 -584 -689 -398 -141 85 -219
224 -219 391 0 133 49 243 150 336 57 53 62 56 88 44 15 -6 171 -77 347 -158z
m-2765 -356 c2 -2 -17 -46 -43 -98 l-47 -95 -92 43 c-51 24 -177 81 -280 128
-103 46 -188 90 -188 97 0 27 31 22 109 -17 90 -46 125 -51 141 -21 18 33 -3
55 -100 100 -49 24 -90 47 -90 52 0 5 9 27 20 48 l20 40 273 -136 c149 -75
274 -138 277 -141z m1000 -3 c0 -18 -84 -180 -94 -180 -11 0 -538 239 -548
248 -4 4 -3 14 2 22 8 12 23 8 97 -29 51 -25 99 -41 112 -39 32 4 49 32 35 56
-8 14 -142 90 -184 104 -10 3 -9 12 5 38 10 19 22 40 27 47 7 9 78 -22 279
-122 148 -74 269 -139 269 -145z m-1408 -144 l293 -133 3 -70 c3 -81 -19 -154
-72 -230 -36 -53 -135 -126 -193 -143 -254 -75 -506 94 -521 349 -5 91 13 167
59 241 32 51 103 120 125 120 7 0 144 -60 306 -134z m1003 1 c332 -152 317
-139 297 -259 -40 -234 -264 -382 -490 -324 -246 63 -370 337 -255 564 31 61
116 152 141 152 9 0 147 -60 307 -133z m1704 -156 c77 -61 212 -111 298 -111
32 0 47 -7 78 -37 105 -102 189 -316 229 -583 27 -189 35 -164 -64 -199 -47
-17 -90 -31 -95 -31 -6 0 -63 135 -128 299 -64 164 -127 314 -140 332 -33 50
-100 81 -162 76 -63 -5 -156 -41 -197 -75 -37 -31 -67 -94 -68 -141 0 -38 329
-903 367 -963 13 -21 42 -47 65 -59 67 -34 114 -29 291 36 87 32 160 56 162
53 3 -3 125 -1872 125 -1920 0 -4 -131 -9 -291 -10 l-292 -3 -8 -23 c-6 -17
-4 -27 11 -42 19 -19 34 -20 305 -20 l285 0 0 -55 0 -55 -470 0 -470 0 0 318
c0 234 -3 321 -12 330 -18 18 -56 14 -68 -7 -6 -12 -10 -124 -10 -293 0 -150
-3 -290 -6 -311 l-7 -37 -70 0 -70 0 6 172 c4 95 12 356 19 580 13 432 12 438
-33 438 -44 0 -46 -16 -64 -605 -9 -308 -18 -566 -20 -572 -6 -20 -145 -18
-145 1 0 46 66 1435 95 2006 36 710 46 810 100 994 53 183 142 336 255 438 55
50 140 108 158 108 2 0 21 -13 41 -29z m92 -367 c10 -9 75 -161 145 -338 69
-176 133 -331 140 -343 8 -13 22 -23 32 -23 9 0 95 29 191 65 96 36 186 65
201 65 43 0 76 -34 99 -102 12 -34 21 -74 21 -89 0 -57 -29 -73 -331 -184
-158 -58 -302 -105 -321 -105 -71 0 -54 -35 -313 638 -91 237 -115 310 -110
333 4 16 10 31 14 33 4 3 47 -92 96 -210 49 -118 96 -221 105 -229 31 -28 70
-11 70 29 0 12 -41 117 -90 235 -50 117 -90 217 -90 221 0 14 54 29 89 25 18
-2 42 -12 52 -21z m-3171 -78 c65 -45 150 -77 223 -83 54 -5 61 -9 102 -56 85
-94 157 -296 188 -525 l14 -104 -26 -10 c-14 -5 -50 -18 -79 -29 l-53 -18 -8
22 c-117 300 -206 515 -223 539 -24 34 -89 67 -131 68 -36 0 -165 -45 -190
-67 -11 -10 -29 -31 -39 -48 -11 -16 -18 -22 -14 -12 10 31 84 134 116 160 17
15 44 34 60 44 51 30 33 104 -22 89 -36 -9 -119 -77 -161 -131 -82 -108 -142
-257 -172 -430 l-17 -99 22 -18 c46 -37 67 -14 86 96 15 89 55 228 74 256 7
11 10 1 10 -35 0 -40 30 -128 155 -450 169 -439 176 -451 267 -476 47 -12 60
-9 261 64 76 29 97 33 97 21 0 -8 23 -371 50 -806 28 -435 50 -809 50 -830 l0
-38 -248 0 c-180 0 -251 -3 -260 -12 -17 -17 -15 -44 4 -62 13 -14 51 -16 265
-16 l249 0 0 -45 0 -45 -407 2 -408 3 4 272 c4 290 2 303 -43 303 -38 0 -46
-19 -46 -114 0 -50 -3 -175 -7 -278 l-6 -188 -53 0 c-29 0 -55 3 -57 8 -2 4 4
228 13 497 9 270 13 500 9 512 -11 32 -49 40 -69 15 -14 -17 -18 -78 -28 -428
-7 -225 -15 -453 -18 -506 l-7 -98 -53 0 c-29 0 -55 3 -57 8 -8 14 98 2192
114 2352 34 344 153 594 341 719 33 23 64 41 69 41 5 0 32 -15 59 -34z m1012
-6 c64 -42 172 -80 230 -80 45 0 79 -27 123 -96 77 -120 135 -314 160 -534 l6
-55 -63 -22 c-35 -12 -70 -24 -79 -28 -12 -5 -36 47 -120 261 -115 295 -137
331 -217 355 -52 15 -105 4 -192 -39 -43 -21 -60 -36 -77 -72 -13 -24 -23 -60
-23 -80 0 -40 297 -818 328 -859 59 -80 135 -83 319 -13 l132 49 5 -41 c3 -22
26 -376 51 -786 25 -410 48 -771 51 -802 l6 -58 -250 0 c-247 0 -251 0 -266
-22 -13 -19 -14 -25 -2 -43 13 -19 25 -20 267 -25 l254 -5 3 -42 3 -43 -455 0
-455 0 -5 43 c-12 91 -117 1847 -112 1856 4 5 34 19 69 30 112 38 158 81 173
160 13 68 -52 218 -106 246 -17 9 -30 23 -30 32 0 33 -45 84 -97 109 -51 25
-52 27 -58 79 -9 65 10 135 65 246 50 101 86 152 152 215 53 52 125 104 142
104 4 0 35 -18 68 -40z m-963 -297 c14 -11 65 -126 137 -308 64 -159 120 -296
126 -302 18 -22 49 -15 203 42 81 30 157 55 169 55 38 0 64 -28 86 -94 21 -65
18 -98 -12 -123 -21 -18 -510 -194 -541 -195 -18 -1 -37 8 -51 23 -29 30 -316
773 -316 817 0 68 21 34 85 -141 38 -100 73 -188 78 -194 5 -7 22 -13 38 -13
52 0 48 32 -30 240 -39 105 -71 192 -71 194 0 3 8 7 18 9 36 10 60 6 81 -10z
m1002 -2 c17 -13 61 -111 144 -317 111 -277 122 -299 146 -302 14 -2 93 22
176 53 83 30 160 55 171 55 32 0 63 -32 83 -86 32 -84 22 -121 -42 -148 -128
-53 -489 -179 -513 -178 -16 0 -37 9 -47 19 -17 18 -319 789 -319 815 0 7 4
19 9 26 5 9 29 -39 71 -145 86 -214 95 -233 123 -233 27 0 47 17 47 40 0 8
-34 100 -75 203 -41 103 -75 189 -75 192 0 7 41 24 61 24 9 1 27 -7 40 -18z
m2783 -76 c14 -21 14 -24 0 -29 -34 -13 -44 -6 -44 29 0 39 18 39 44 0z
m-3201 -329 c6 -15 -1 -26 -15 -26 -4 0 -8 9 -8 20 0 23 15 27 23 6z m1010 0
c6 -15 -1 -26 -15 -26 -4 0 -8 9 -8 20 0 23 15 27 23 6z"/>
<path d="M3651 3671 c-89 -47 -207 -203 -262 -344 -29 -77 -69 -237 -83 -334
-7 -50 17 -85 53 -76 29 7 30 10 47 115 19 123 55 238 104 334 49 99 98 158
178 218 65 49 69 55 52 87 -13 24 -44 24 -89 0z"/>
</g>
</svg>
