<?xml version="1.0" standalone="no"?>
<!DOCTYPE svg PUBLIC "-//W3C//DTD SVG 20010904//EN"
 "http://www.w3.org/TR/2001/REC-SVG-20010904/DTD/svg10.dtd">
<svg version="1.0" xmlns="http://www.w3.org/2000/svg"
 width="1000.000000px" height="750.000000px" viewBox="0 0 1000.000000 750.000000"
 preserveAspectRatio="xMidYMid meet">

<g transform="translate(0.000000,750.000000) scale(0.100000,-0.100000)"
fill="#000000" stroke="none">
<path d="M1358 6754 l-137 -85 -345 -696 c-190 -382 -346 -699 -346 -703 0 -7
101 -71 895 -565 193 -119 517 -321 720 -448 601 -374 996 -619 1410 -877 617
-384 1037 -645 1205 -750 l155 -97 7 36 c4 20 7 88 7 151 l0 115 -192 116
c-106 63 -564 342 -1020 618 -455 276 -911 553 -1015 615 -103 62 -279 169
-392 238 -1216 737 -1503 913 -1507 924 -2 7 44 113 103 236 59 123 133 277
164 343 145 304 414 863 426 888 8 15 11 27 7 27 -5 -1 -70 -39 -145 -86z"/>
<path d="M8544 6708 c134 -280 300 -627 470 -981 98 -203 175 -374 173 -381
-3 -7 -211 -138 -464 -291 -252 -153 -552 -335 -668 -405 -770 -468 -1622
-985 -1925 -1168 -195 -118 -427 -258 -515 -312 -88 -53 -249 -151 -357 -216
l-197 -119 -1 -106 c0 -58 3 -126 6 -151 l6 -45 242 149 c132 83 257 160 276
173 19 12 166 104 325 203 160 99 448 278 640 397 433 270 1255 781 1760 1095
209 130 552 343 763 474 210 131 382 242 382 247 0 5 -156 321 -347 703 l-347
695 -137 86 c-75 47 -139 85 -143 85 -3 0 23 -60 58 -132z"/>
<path d="M2315 6145 l-270 -534 40 -41 c139 -144 402 -279 750 -386 396 -122
849 -313 1126 -474 226 -132 646 -469 810 -651 89 -98 176 -217 203 -277 l19
-43 33 61 c103 193 339 429 699 700 72 54 164 120 205 148 250 168 773 397
1215 532 343 105 587 228 740 372 l60 57 -269 533 c-148 293 -271 535 -272
537 -2 2 -68 -28 -146 -67 -156 -78 -363 -162 -588 -240 -313 -108 -500 -186
-730 -305 -305 -157 -444 -252 -611 -417 -166 -164 -267 -326 -314 -504 l-21
-79 -17 66 c-72 293 -318 581 -684 801 -260 156 -587 304 -953 431 -257 89
-432 160 -595 241 -83 41 -152 74 -155 74 -3 0 -126 -241 -275 -535z"/>
<path d="M2130 6551 l-195 -67 -40 -75 c-23 -41 -119 -218 -215 -394 -95 -176
-216 -399 -268 -495 -52 -96 -104 -192 -116 -212 -14 -24 -18 -40 -11 -47 6
-5 307 -188 670 -407 363 -218 966 -582 1340 -807 962 -580 1255 -756 1275
-767 13 -7 45 14 156 106 76 64 145 122 153 129 11 11 -1 28 -70 106 -272 303
-606 633 -797 786 -114 92 -239 170 -406 253 -235 116 -433 195 -818 325 -379
128 -579 216 -748 330 -111 75 -230 179 -230 203 0 10 119 257 265 550 146
294 265 538 265 543 0 12 10 15 -210 -60z"/>
<path d="M7650 6611 c0 -5 119 -250 265 -545 146 -295 265 -543 265 -550 0
-22 -123 -129 -230 -201 -163 -110 -371 -203 -700 -313 -449 -151 -681 -244
-920 -368 -206 -108 -318 -188 -548 -397 -210 -190 -698 -696 -690 -717 2 -5
72 -63 157 -129 129 -101 157 -119 173 -110 10 5 94 55 186 111 92 56 340 205
552 333 212 128 705 425 1095 660 391 235 874 527 1075 647 201 121 369 224
375 229 6 7 3 21 -9 42 -10 18 -62 113 -116 212 -53 99 -124 230 -157 290 -33
61 -108 198 -166 305 -58 107 -127 235 -154 284 l-48 89 -200 68 c-231 79
-205 71 -205 60z"/>
<path d="M3124 3166 l-282 -161 -48 -90 c-26 -49 -85 -159 -131 -244 -45 -85
-82 -156 -80 -157 2 -3 74 40 495 294 291 176 314 184 410 136 52 -26 95 -71
127 -133 109 -214 -397 -663 -1330 -1181 -82 -45 -168 -93 -190 -106 -38 -21
-48 -37 -175 -304 -74 -155 -143 -302 -154 -326 l-18 -43 47 -82 c27 -44 54
-83 61 -86 7 -3 57 22 111 55 54 32 247 149 428 259 182 110 533 323 780 473
248 150 538 326 645 391 675 407 982 596 983 604 0 6 -193 128 -429 272 -371
228 -887 542 -949 578 -17 11 -55 -8 -301 -149z"/>
<path d="M6430 3236 c-74 -46 -380 -233 -680 -416 -300 -183 -551 -338 -559
-345 -11 -11 -9 -15 10 -28 13 -8 174 -105 357 -216 182 -110 481 -291 662
-401 182 -110 480 -291 663 -401 686 -416 996 -604 1120 -680 l128 -78 44 68
c79 122 88 78 -87 441 l-155 322 -174 97 c-999 557 -1496 992 -1384 1212 46
90 138 159 209 159 55 -1 135 -43 480 -253 187 -114 341 -206 342 -204 2 2
-25 56 -60 121 -35 64 -94 174 -131 244 l-68 127 -276 158 c-152 86 -283 157
-291 157 -8 0 -76 -38 -150 -84z"/>
<path d="M3320 2804 c-25 -15 -85 -50 -135 -79 -49 -28 -199 -114 -332 -189
-134 -76 -243 -140 -243 -142 0 -5 98 -163 112 -181 10 -13 6 -15 518 300 151
93 290 179 308 189 17 11 32 24 32 28 0 12 -56 53 -107 79 -56 28 -98 26 -153
-5z"/>
<path d="M6517 2811 c-47 -24 -107 -69 -107 -81 0 -8 822 -519 842 -523 8 -2
128 175 128 188 0 1 -73 45 -162 95 -90 51 -260 149 -379 216 -234 134 -253
140 -322 105z"/>
</g>
</svg>
