<?xml version="1.0" standalone="no"?>
<!DOCTYPE svg PUBLIC "-//W3C//DTD SVG 20010904//EN"
 "http://www.w3.org/TR/2001/REC-SVG-20010904/DTD/svg10.dtd">
<svg version="1.0" xmlns="http://www.w3.org/2000/svg"
 width="512.000000pt" height="512.000000pt" viewBox="0 0 512.000000 512.000000"
 preserveAspectRatio="xMidYMid meet">
<metadata>
Created by potrace 1.16, written by Peter Selinger 2001-2019
</metadata>
<g transform="translate(0.000000,512.000000) scale(0.100000,-0.100000)"
fill="#000000" stroke="none">
<path d="M2744 5105 c-91 -20 -181 -69 -247 -137 l-58 -59 -66 26 c-282 113
-609 -65 -666 -362 l-11 -60 -81 -15 c-112 -21 -187 -60 -266 -138 -77 -76
-113 -144 -136 -256 -13 -64 -14 -93 -6 -149 6 -38 13 -77 17 -85 4 -11 -12
-25 -55 -50 -70 -40 -149 -122 -183 -189 -80 -156 -74 -355 13 -492 l29 -47
-29 -28 c-44 -42 -85 -111 -109 -183 -24 -74 -29 -210 -10 -282 13 -49 59
-141 89 -179 l19 -24 -29 -37 c-44 -56 -78 -132 -96 -215 -30 -137 4 -277 100
-402 l47 -64 -26 -31 c-36 -42 -93 -162 -101 -211 -4 -27 -14 -43 -32 -53 -14
-8 -201 -99 -416 -202 -440 -211 -435 -207 -435 -311 0 -43 5 -63 23 -86 12
-16 191 -197 397 -401 361 -356 378 -371 421 -378 53 -8 106 10 139 48 12 14
108 204 214 423 l191 398 70 21 c80 25 133 51 190 93 l39 30 48 -43 c113 -101
300 -143 449 -99 68 20 160 68 189 99 l22 23 42 -32 c178 -135 440 -125 618
25 l47 40 38 -25 c75 -50 149 -69 263 -69 86 0 116 4 165 23 119 46 222 133
268 228 18 35 25 42 42 37 11 -4 63 -9 116 -12 109 -6 175 8 271 59 132 70
248 251 248 388 l0 36 63 12 c147 27 288 134 352 267 64 132 68 274 13 411
l-24 60 37 29 c51 42 115 130 141 195 32 83 37 237 10 327 -31 100 -91 186
-175 251 l-29 21 22 63 c100 288 -72 595 -364 650 l-63 12 -6 69 c-11 128
-101 273 -215 346 -60 38 -118 59 -207 74 l-70 12 -7 45 c-27 181 -160 328
-347 384 -82 24 -210 21 -295 -8 l-69 -24 -71 72 c-80 81 -149 119 -254 142
-81 17 -128 17 -208 -1z m196 -327 c95 -52 119 -183 48 -264 -41 -46 -82 -66
-138 -67 -149 -2 -235 178 -138 289 65 74 144 89 228 42z m-683 -133 c48 -20
71 -41 94 -87 45 -87 8 -193 -83 -239 -130 -67 -281 50 -254 196 13 68 107
144 179 145 15 0 44 -7 64 -15z m1347 -46 c98 -67 106 -206 17 -282 -109 -91
-271 -33 -296 105 -13 69 40 163 110 195 44 20 126 11 169 -18z m-1824 -424
c53 -28 100 -103 100 -162 -1 -74 -65 -150 -145 -172 -75 -20 -165 23 -199 94
-73 153 93 316 244 240z m976 -32 c66 -13 92 -14 157 -5 43 6 99 21 124 32 45
20 47 20 56 3 19 -35 123 -128 173 -155 58 -31 152 -58 204 -58 l35 0 12 -62
c28 -147 130 -279 266 -343 40 -20 96 -38 124 -41 l50 -6 12 -77 c20 -131 102
-268 199 -333 l23 -15 -27 -79 c-23 -70 -26 -90 -22 -179 4 -77 11 -114 31
-162 l25 -63 -62 -62 c-77 -77 -122 -164 -138 -269 l-12 -76 -61 -11 c-96 -18
-193 -72 -262 -146 -33 -35 -69 -82 -79 -105 -12 -25 -24 -39 -32 -36 -8 3
-44 10 -80 15 -129 20 -268 -17 -378 -101 l-64 -49 -52 29 c-78 43 -150 61
-249 61 -111 0 -197 -26 -285 -86 l-65 -45 -29 24 c-133 112 -370 128 -539 37
-30 -17 -57 -28 -59 -25 -3 2 9 31 26 63 92 173 79 380 -34 528 l-32 42 23 22
c32 30 80 123 100 194 34 118 8 290 -61 391 l-25 37 39 42 c93 100 126 199
120 350 -3 55 -8 108 -12 117 -5 13 6 24 46 47 118 67 215 204 240 340 l12 62
41 0 c100 0 226 60 313 150 l55 56 37 -18 c20 -10 73 -26 116 -35z m1341 1
c86 -50 109 -174 46 -252 -42 -52 -85 -74 -142 -74 -163 0 -242 194 -123 305
63 60 139 67 219 21z m443 -484 c46 -23 86 -79 95 -132 13 -72 -35 -155 -110
-189 -49 -23 -84 -24 -133 -4 -74 31 -114 90 -114 165 0 134 143 221 262 160z
m-3053 -95 c48 -20 71 -41 94 -87 34 -66 17 -162 -37 -209 -93 -81 -226 -57
-286 51 -43 79 -2 196 84 239 51 25 95 27 145 6z m3219 -554 c113 -52 139
-210 47 -293 -53 -48 -140 -60 -202 -28 -132 67 -131 253 1 319 53 26 100 26
154 2z m-3245 -135 c42 -28 79 -96 79 -144 0 -38 -23 -98 -48 -125 -27 -31
-88 -57 -131 -57 -141 0 -227 145 -156 265 54 93 167 120 256 61z m3113 -530
c136 -79 107 -282 -45 -328 -117 -34 -249 85 -224 203 26 124 163 187 269 125z
m-3148 -132 c96 -46 129 -168 70 -257 -100 -148 -328 -84 -328 93 0 71 48 143
112 169 39 15 108 13 146 -5z m2670 -353 c135 -61 136 -255 2 -320 -55 -26
-107 -27 -158 -1 -142 72 -129 269 21 329 38 15 91 12 135 -8z m-618 -275 c31
-16 74 -61 91 -93 15 -30 14 -97 -3 -136 -28 -69 -128 -126 -193 -111 -176 41
-206 256 -48 338 37 20 117 21 153 2z m-2006 -26 c120 -34 118 -195 -4 -305
-165 -148 -353 -41 -264 150 29 63 104 131 165 149 57 18 58 18 103 6z m1363
-54 c41 -32 75 -95 75 -141 0 -38 -31 -104 -61 -132 -31 -28 -90 -53 -126 -53
-15 0 -47 9 -69 19 -107 49 -138 190 -61 278 43 49 80 64 149 60 43 -2 65 -10
93 -31z m-705 4 c122 -62 134 -231 21 -307 -91 -61 -209 -31 -259 67 -77 150
88 317 238 240z m-1133 -509 l68 -68 -119 -249 c-66 -137 -122 -251 -124 -254
-1 -2 -93 86 -203 196 l-200 200 253 121 c139 67 254 122 254 122 1 1 33 -30
71 -68z"/>
</g>
</svg>
