<?xml version="1.0" standalone="no"?>
<!DOCTYPE svg PUBLIC "-//W3C//DTD SVG 20010904//EN"
 "http://www.w3.org/TR/2001/REC-SVG-20010904/DTD/svg10.dtd">
<svg version="1.0" xmlns="http://www.w3.org/2000/svg"
 width="512.000000pt" height="512.000000pt" viewBox="0 0 512.000000 512.000000"
 preserveAspectRatio="xMidYMid meet">
<metadata>
Created by potrace 1.16, written by Peter Selinger 2001-2019
</metadata>
<g transform="translate(0.000000,512.000000) scale(0.100000,-0.100000)"
fill="#000000" stroke="none">
<path d="M2501 4214 c-20 -26 -21 -38 -21 -293 1 -281 1 -285 48 -310 30 -16
65 -7 92 21 19 21 20 34 20 289 0 254 -1 267 -21 293 -16 20 -29 26 -59 26
-30 0 -43 -6 -59 -26z"/>
<path d="M1860 3770 c-29 -29 -25 -74 15 -170 40 -94 54 -110 101 -110 46 0
78 30 78 71 -1 40 -59 184 -86 211 -25 25 -82 24 -108 -2z"/>
<path d="M3152 3772 c-27 -27 -85 -171 -86 -211 0 -41 32 -71 78 -71 47 0 61
16 101 110 40 96 44 141 15 170 -26 26 -83 27 -108 2z"/>
<path d="M1050 3749 c-50 -14 -110 -40 -151 -67 -33 -21 -41 -22 -97 -13 -238
38 -466 -142 -480 -378 -7 -127 -68 -115 652 -119 408 -2 623 0 647 8 48 13
64 50 54 126 -26 214 -175 385 -382 439 -63 17 -189 18 -243 4z m216 -164
c103 -30 188 -108 225 -205 l19 -50 -510 0 c-290 0 -510 4 -510 9 0 5 15 30
33 57 57 85 166 132 259 112 113 -23 124 -23 168 12 92 73 209 97 316 65z"/>
<path d="M3945 3646 c-16 -8 -110 -94 -207 -193 -163 -164 -178 -182 -178
-214 0 -48 30 -79 77 -79 34 0 50 13 227 189 176 176 190 192 190 226 0 60
-54 95 -109 71z"/>
<path d="M2385 3349 c-291 -56 -489 -156 -674 -340 -221 -222 -336 -489 -348
-811 l-6 -146 26 -26 c34 -34 79 -34 112 -1 23 22 25 31 25 128 0 395 217 751
569 930 108 56 187 83 297 102 256 45 525 -13 751 -162 59 -38 216 -188 269
-256 40 -51 91 -61 128 -24 39 39 34 74 -19 145 -59 79 -207 219 -287 271
-122 81 -284 148 -428 177 -90 19 -345 27 -415 13z"/>
<path d="M950 2860 c-29 -29 -30 -83 -2 -112 21 -20 183 -88 212 -88 33 0 70
44 70 83 0 44 -25 66 -122 106 -89 36 -130 39 -158 11z"/>
<path d="M4009 2847 c-96 -40 -119 -60 -119 -104 0 -39 37 -83 70 -83 29 0
191 68 212 88 28 29 27 83 -2 112 -28 28 -72 25 -161 -13z"/>
<path d="M3262 2570 c-210 -56 -358 -234 -378 -451 -6 -63 -5 -69 19 -93 l26
-26 634 0 634 0 21 23 c42 45 22 182 -42 282 -45 68 -106 121 -185 159 -63 29
-72 31 -186 31 -105 0 -124 3 -155 22 -103 63 -267 86 -388 53z m254 -169 c22
-10 65 -35 94 -55 59 -41 62 -41 120 -21 122 43 262 -13 321 -127 l19 -38
-510 0 -510 0 10 25 c33 86 114 181 177 207 102 41 198 44 279 9z"/>
<path d="M506 2219 c-35 -27 -36 -86 -3 -117 23 -21 30 -22 293 -22 289 1 294
1 313 53 14 36 -3 81 -35 96 -17 7 -111 11 -283 11 -246 0 -260 -1 -285 -21z"/>
<path d="M1140 1893 c-327 -49 -497 -95 -888 -239 -187 -69 -205 -78 -233
-121 -26 -38 -25 -128 0 -167 56 -84 123 -87 322 -12 491 183 753 243 1029
233 173 -6 230 -20 546 -138 350 -130 520 -164 742 -147 132 10 290 52 549
148 317 117 371 131 538 137 270 10 556 -55 1034 -234 164 -61 219 -68 273
-35 47 29 68 70 68 133 0 56 -24 104 -63 129 -11 7 -113 46 -226 87 -475 172
-752 233 -1054 233 -214 0 -313 -24 -757 -185 -386 -140 -525 -142 -880 -15
-518 186 -579 201 -817 199 -87 -1 -169 -3 -183 -6z"/>
<path d="M1660 1028 c-113 -7 -199 -23 -325 -62 -141 -43 -425 -145 -447 -160
-39 -28 -58 -68 -58 -126 0 -62 20 -100 66 -131 52 -34 109 -25 325 51 240 84
334 109 455 119 146 12 196 3 451 -90 221 -80 303 -99 433 -99 130 0 212 19
434 99 91 33 194 68 228 77 161 42 396 1 752 -130 108 -41 137 -48 181 -44 88
7 135 59 135 148 0 105 -31 129 -294 219 -276 95 -457 132 -646 132 -136 0
-232 -22 -440 -101 -186 -70 -261 -90 -348 -90 -92 0 -152 15 -351 89 -255 96
-347 112 -551 99z"/>
</g>
</svg>
